<?xml version="1.0" encoding="UTF-8"?>
<svg width="371px" height="208px" viewBox="0 0 371 208" version="1.1" xmlns="http://www.w3.org/2000/svg" xmlns:xlink="http://www.w3.org/1999/xlink">
    <title>编组 29</title>
    <defs>
        <linearGradient x1="-47.0190124%" y1="-185.963888%" x2="68.8688465%" y2="100%" id="linearGradient-1">
            <stop stop-color="#D2D2D2" offset="0%"></stop>
            <stop stop-color="#D2D2D2" stop-opacity="0" offset="100%"></stop>
        </linearGradient>
        <linearGradient x1="118.999979%" y1="-110.864112%" x2="54.5018665%" y2="55.5871768%" id="linearGradient-2">
            <stop stop-color="#D2D2D2" offset="0%"></stop>
            <stop stop-color="#D2D2D2" stop-opacity="0" offset="100%"></stop>
        </linearGradient>
        <linearGradient x1="50%" y1="-221.156912%" x2="50%" y2="100%" id="linearGradient-3">
            <stop stop-color="#D2D2D2" offset="0%"></stop>
            <stop stop-color="#D2D2D2" stop-opacity="0" offset="100%"></stop>
        </linearGradient>
        <linearGradient x1="100.080959%" y1="-97.780461%" x2="38.826306%" y2="104.736078%" id="linearGradient-4">
            <stop stop-color="#D2D2D2" offset="0%"></stop>
            <stop stop-color="#D2D2D2" stop-opacity="0" offset="100%"></stop>
        </linearGradient>
        <linearGradient x1="50%" y1="-230.116303%" x2="50%" y2="100%" id="linearGradient-5">
            <stop stop-color="#D2D2D2" offset="0%"></stop>
            <stop stop-color="#D2D2D2" stop-opacity="0" offset="100%"></stop>
        </linearGradient>
        <linearGradient x1="50%" y1="-169.203289%" x2="50%" y2="100%" id="linearGradient-6">
            <stop stop-color="#D2D2D2" offset="0%"></stop>
            <stop stop-color="#D2D2D2" stop-opacity="0" offset="100%"></stop>
        </linearGradient>
        <linearGradient x1="50%" y1="0%" x2="50%" y2="100%" id="linearGradient-7">
            <stop stop-color="#D1D1D1" offset="0%"></stop>
            <stop stop-color="#EAEAEA" offset="100%"></stop>
        </linearGradient>
        <linearGradient x1="50%" y1="15.2520789%" x2="83.9309294%" y2="55.3519373%" id="linearGradient-8">
            <stop stop-color="#F2F1F1" offset="0%"></stop>
            <stop stop-color="#F6F6F6" offset="100%"></stop>
        </linearGradient>
        <linearGradient x1="50%" y1="0%" x2="50%" y2="100%" id="linearGradient-9">
            <stop stop-color="#E2E1E1" offset="0%"></stop>
            <stop stop-color="#FDFDFD" offset="100%"></stop>
        </linearGradient>
        <linearGradient x1="50%" y1="48.5196906%" x2="47.6845985%" y2="54.2041932%" id="linearGradient-10">
            <stop stop-color="#FFFFFF" offset="0%"></stop>
            <stop stop-color="#F7F7F7" offset="100%"></stop>
        </linearGradient>
        <linearGradient x1="50%" y1="0%" x2="50%" y2="100%" id="linearGradient-11">
            <stop stop-color="#EAEAEA" offset="0%"></stop>
            <stop stop-color="#FCFCFC" stop-opacity="0" offset="100%"></stop>
        </linearGradient>
        <linearGradient x1="130.853945%" y1="-35.095306%" x2="130.853945%" y2="116.960465%" id="linearGradient-12">
            <stop stop-color="#FFFFFF" offset="0%"></stop>
            <stop stop-color="#478FFC" offset="100%"></stop>
        </linearGradient>
        <linearGradient x1="130.853945%" y1="-35.095306%" x2="130.853945%" y2="116.960465%" id="linearGradient-13">
            <stop stop-color="#FFFFFF" offset="0%"></stop>
            <stop stop-color="#478FFC" offset="100%"></stop>
        </linearGradient>
        <linearGradient x1="130.853945%" y1="-35.095306%" x2="130.853945%" y2="116.960465%" id="linearGradient-14">
            <stop stop-color="#FFFFFF" offset="0%"></stop>
            <stop stop-color="#478FFC" offset="100%"></stop>
        </linearGradient>
    </defs>
    <g id="页面-1" stroke="none" stroke-width="1" fill="none" fill-rule="evenodd">
        <g id="编组-29" transform="translate(0.000000, 0.000000)" fill-rule="nonzero">
            <g id="编组-2备份-9" transform="translate(0.000000, -0.000000)">
                <path d="M73.2592593,159.554082 C65.345679,155.973835 56.7654321,146.368897 59.1975309,137.331859 C60.4139859,137.020515 61.693852,137.516587 62.382716,138.566427 C62.382716,138.566427 76.1111111,160.010872 72.2592593,140.282477 C70.4444444,131.010872 67.3209877,122.047909 67.0740741,112.467662 C66.6666667,95.0602545 82.6419753,90.233094 87.2345679,109.467662 C87.8395062,112.010872 90.1604938,132.689884 95.4444444,130.319514 C96.1250336,129.961557 96.6773282,129.400632 97.0246914,128.714576 C99.7037037,124.319514 100.506173,117.862724 105.419753,116.368897 C109.728395,115.010872 113.975309,118.751613 116.296296,122.61581 C121,130.467662 127.296296,149.98618 117.666667,156.603464 C108.037037,163.220748 83.7407407,164.270131 73.345679,159.640501 L73.2592593,159.554082 Z" id="路径" fill="url(#linearGradient-1)"></path>
                <path d="M273.185185,180.430625 C269.703704,172.467662 269.790123,159.591119 277.691358,154.504699 C278.808047,155.104911 279.411159,156.355993 279.185185,157.603464 C279.185185,157.603464 274.975309,182.726921 285.358025,165.504699 C290.296296,157.393588 294,148.665193 300.17284,141.393588 C311.518519,128.134329 326.641975,135.331859 317.148148,152.677538 C315.91358,154.973835 303.740741,171.862724 309.246914,173.665193 C309.992355,173.848515 310.775891,173.801158 311.493827,173.52939 C316.432099,172.0726 321.37037,167.825687 326.037037,169.973835 C330.135802,171.862724 330.777778,177.467662 329.91358,181.899761 C328.135802,190.875069 319.421721,200.91212 307.841474,199.356564 C296.014314,197.751626 277.777778,190.924452 273.222222,180.517045 L273.185185,180.430625 Z" id="路径" fill="url(#linearGradient-2)"></path>
                <path d="M370.518519,199.356551 C323.962963,167.418279 258.17284,147.504699 185.259259,147.504699 C112.345679,147.504699 46.5555556,167.418279 0,199.356551 L370.518519,199.356551 Z" id="路径" fill="url(#linearGradient-3)"></path>
                <path d="M293.469136,103.060255 C290.518519,106.763958 288.62963,112.010872 290.395062,116.70223 C291.617284,119.936798 295.296296,119.961489 295.037037,124.455316 C294.783185,126.699169 294.014206,128.854 292.790123,130.751613 C290.704251,134.400024 288.14732,137.758071 285.185185,140.739267 C287.654305,142.665262 288.910389,145.760781 288.481481,148.862724 C287.997231,151.941616 286.539107,154.784309 284.320988,156.973835 C283.667879,157.772484 282.816415,158.385539 281.851852,158.751613 C280.917648,158.967389 279.94655,158.967389 279.012346,158.751613 C274.419062,157.972041 269.959209,156.546384 265.765432,154.517045 C263.148148,153.270131 260.481481,151.566427 259.592593,148.850378 C258.574074,145.733094 260.19348,144.742546 261.961179,143.765863 L262.41743,143.513691 C263.3302,143.004636 264.22575,142.451348 264.765432,141.566427 C266.061728,139.442971 266.098765,136.603464 266.555556,134.233094 C267.222222,130.739267 266.234568,124.368897 270.604938,122.998526 C272.296296,122.467662 274.135802,122.591119 275.82716,122.047909 C279.501372,120.878499 281.022443,117.422242 282.495104,113.927564 L282.762795,113.292245 C283.611763,111.282231 284.486968,109.304653 285.790123,107.78865 C287.641975,105.628156 292.234568,104.566427 293.469136,103.060255 Z M282.802469,123.78865 C282.802469,123.78865 269.506173,139.294822 269.938272,153.628156 L274.234568,153.628156 C274.234568,153.628156 275.790123,136.344205 282.802469,123.78865 Z" id="形状结合" fill="url(#linearGradient-4)"></path>
                <path d="M104.135802,22.0108718 L104.135802,22.0108718 C104.204481,17.2252075 100.786222,13.0986863 96.0713857,12.2755097 C91.3565496,11.4523331 86.7422233,14.1764226 85.1851852,18.7022298 C82.2145965,18.6439999 79.4492011,20.2121758 77.9742152,22.7913626 C76.4992294,25.3705494 76.5499916,28.54923 78.1065814,31.0800038 C79.6631712,33.6107776 82.4772299,35.0898519 85.4444444,34.9367977 L103.333333,34.9367977 C106.729866,34.891492 109.517593,32.2362321 109.72807,28.8459242 C109.938548,25.4556163 107.50065,22.4759385 104.135802,22.0108718 L104.135802,22.0108718 Z" id="路径" fill="url(#linearGradient-5)"></path>
                <path d="M178.074074,12.2084027 L178.074074,12.1466743 C178.066799,6.23154854 173.804253,1.17965438 167.974706,0.177082054 C162.14516,-0.825490268 156.439779,2.51210807 154.45679,8.08494589 C148.848713,8.17358419 144.374325,12.7916841 144.462963,18.3997607 C144.551601,24.0078373 149.169701,28.4822262 154.777778,28.3935879 L177,28.3935879 C181.281476,28.4012178 184.829217,25.075029 185.097306,20.8019475 C185.365395,16.528866 182.261202,12.7853409 178.012346,12.2577854 L178.074074,12.2084027 Z" id="路径" fill="url(#linearGradient-6)"></path>
            </g>
            <path d="M180.101509,40.1578966 C182.654669,40.1578966 184.724414,42.2284075 184.724414,44.7825121 C184.724414,47.019648 183.13651,48.8857718 181.026696,49.3144955 L181.02609,55.8815893 L179.176928,55.8815893 L179.176856,49.314604 C177.066776,48.8860868 175.478604,47.0198368 175.478604,44.7825121 C175.478604,42.2284075 177.548349,40.1578966 180.101509,40.1578966 Z" id="形状结合" fill="url(#linearGradient-7)" transform="translate(180.101509, 48.019743) rotate(-15.000000) translate(-180.101509, -48.019743) "></path>
            <ellipse id="椭圆形" fill="url(#linearGradient-8)" transform="translate(189.557324, 83.309324) rotate(-15.000000) translate(-189.557324, -83.309324) " cx="189.557324" cy="83.3093236" rx="38.8324022" ry="32.3723084"></ellipse>
            <ellipse id="椭圆形" fill="url(#linearGradient-9)" transform="translate(195.063241, 103.857687) rotate(-15.000000) translate(-195.063241, -103.857687) " cx="195.063241" cy="103.857687" rx="79.5139665" ry="27.7476929"></ellipse>
            <path d="M252.998324,107.962924 C253.078527,106.432563 255.375749,105.309042 258.129386,105.453354 C260.883023,105.597666 263.050317,106.955356 262.970115,108.485717 C262.889912,110.016078 260.59269,111.139599 257.839053,110.995287 C255.085416,110.850975 252.918122,109.493285 252.998324,107.962924 Z M135.975887,103.451194 C138.712746,103.115026 141.082684,104.075562 141.269443,105.596594 C141.456202,107.117625 139.388815,108.623199 136.651955,108.959367 C133.915096,109.295536 131.545158,108.334999 131.358399,106.813967 C131.171639,105.292936 133.239027,103.787362 135.975887,103.451194 Z M212.557392,94.4129492 C212.691063,91.8623475 216.519767,89.9898122 221.109161,90.2303322 C225.698555,90.4708521 229.310713,92.7336687 229.177042,95.2842704 C229.04337,97.8348721 225.214667,99.7074074 220.625273,99.4668874 C216.035878,99.2263674 212.42372,96.9635509 212.557392,94.4129492 Z M172.54706,88.380486 C177.136455,88.139966 180.965158,90.0125013 181.09883,92.563103 C181.232501,95.1137047 177.620343,97.3765212 173.030949,97.6170412 C168.441554,97.8575612 164.612851,95.9850259 164.47918,93.4344242 C164.345508,90.8838225 167.957666,88.621006 172.54706,88.380486 Z" id="形状结合" fill="url(#linearGradient-10)" transform="translate(197.159475, 99.683725) rotate(-15.000000) translate(-197.159475, -99.683725) "></path>
            <ellipse id="椭圆形复制-6" fill="#FFFFFF" transform="translate(197.217730, 111.898351) rotate(-15.000000) translate(-197.217730, -111.898351) " cx="197.21773" cy="111.898351" rx="42.4074488" ry="10.1741541"></ellipse>
            <path d="M179.158442,106.907662 L131.429748,178.214611 C178.543356,191.043439 227.264316,193.270032 277.592627,184.894391 C277.831491,184.941996 263.430475,158.929494 234.38958,106.856885 L206.047828,106.882941 L179.158442,106.907662 Z" id="路径-2" fill="url(#linearGradient-11)" transform="translate(204.512649, 148.356885) rotate(-15.000000) translate(-204.512649, -148.356885) "></path>
            <g id="编组-28" transform="translate(163.435520, 127.444692)">
                <path d="M25.2215125,17.6993082 L25.2215125,38.1670501 L29.2376415,38.1670501 L29.2376415,44.6993082 L25.2215125,44.6993082 L25.2215125,53.6993082 L17.1892544,53.6993082 L17.1892544,44.6993082 L2.09248022,44.6993082 L2.09248022,38.7476953 L14.6247383,17.6993082 L25.2215125,17.6993082 Z M17.5279641,24.9089856 L17.3344157,24.9089856 C16.4150609,26.9412437 15.4473189,29.0218888 14.4311899,31.0541469 L14.4311899,31.0541469 L10.3182867,38.1670501 L17.1892544,38.1670501 L17.1892544,32.8928566 C17.1892544,30.618663 17.4311899,27.1831791 17.5279641,24.9089856 L17.5279641,24.9089856 Z" id="形状结合" fill="url(#linearGradient-12)" transform="translate(15.665061, 35.699308) rotate(-7.000000) translate(-15.665061, -35.699308) "></path>
                <path d="M43.4287289,1.36330818 C50.7499725,1.36330818 55.7396098,7.3322201 55.7396098,19.1767797 C55.7396098,31.1146035 50.7499725,37.3633082 43.4287289,37.3633082 C36.1074854,37.3633082 31.1644802,31.1146035 31.1644802,19.1767797 C31.1644802,7.23895585 36.1074854,1.36330818 43.4287289,1.36330818 Z M43.4287289,7.75190922 C40.9572263,7.75190922 38.9986771,9.71045844 38.9986771,19.1767797 C38.9986771,28.6897331 40.9572263,30.928075 43.4287289,30.928075 C45.9002315,30.928075 47.9054129,28.6897331 47.9054129,19.1767797 C47.9054129,9.71045844 45.9002315,7.75190922 43.4287289,7.75190922 Z" id="形状结合" fill="url(#linearGradient-13)" transform="translate(43.452045, 19.363308) rotate(-7.000000) translate(-43.452045, -19.363308) "></path>
                <path d="M84.1469748,40.6993082 L84.1469748,34.118663 L78.0233189,34.118663 L78.0233189,6.69930818 L72.0367598,6.69930818 C69.6604157,8.16167377 67.2840716,9.07565227 63.6281576,9.76113614 L63.6281576,14.7880179 L69.8889103,14.7880179 L69.8889103,34.118663 L62.6684802,34.118663 L62.6684802,40.6993082 L84.1469748,40.6993082 Z" id="路径" fill="url(#linearGradient-14)" transform="translate(73.407728, 23.699308) rotate(-16.000000) translate(-73.407728, -23.699308) "></path>
            </g>
        </g>
    </g>
</svg>