<?xml version="1.0" standalone="no"?>
<!DOCTYPE svg PUBLIC "-//W3C//DTD SVG 1.1//EN" "http://www.w3.org/Graphics/SVG/1.1/DTD/svg11.dtd" >
<!--
2013-9-30: Created.
-->
<svg>
<metadata>
Created by iconfont
</metadata>
<defs>

<font id="iconfont" horiz-adv-x="1024" >
  <font-face
    font-family="iconfont"
    font-weight="500"
    font-stretch="normal"
    units-per-em="1024"
    ascent="896"
    descent="-128"
  />
    <missing-glyph />
    
    <glyph glyph-name="xiangzhenweizhi" unicode="&#59050;" d="M512 384m-501.55102 0a501.55102 501.55102 0 1 1 1003.10204 0 501.55102 501.55102 0 1 1-1003.10204 0ZM252.865306 643.134694h518.269388v-518.269388H252.865306zM512 643.134694c114.938776 0 206.889796-91.95102 206.889796-206.889796 0-27.167347-10.44898-60.604082-31.346939-100.310204l-2.089796-2.089796-2.089796 2.089796c-6.269388 6.269388-12.538776 10.44898-20.897959 10.448979s-16.718367-4.179592-20.897959-8.359183l-102.4-100.310204c-4.179592-4.179592-6.269388-12.538776-4.179592-18.808164 2.089796-6.269388 8.359184-10.44898 16.718367-10.448979h8.359184v-41.795919l-22.987755-27.167346c-6.269388-6.269388-14.628571-10.44898-25.077551-10.44898-8.359184 0-16.718367 4.179592-22.987755 10.44898-4.179592 4.179592-50.155102 52.244898-94.040816 110.759183-58.514286 79.412245-89.861224 144.195918-89.861225 190.171429 0 108.669388 91.95102 202.710204 206.889796 202.710204z m0-110.759184c-54.334694 0-96.130612-43.885714-96.130612-96.130612s43.885714-96.130612 96.130612-96.130612 96.130612 43.885714 96.130612 96.130612-41.795918 96.130612-96.130612 96.130612zM766.955102 231.444898L679.183673 312.946939c-4.179592 4.179592-10.44898 8.359184-16.718367 8.359183-6.269388 0-12.538776-2.089796-16.718367-8.359183l-83.591837-81.502041c-4.179592-4.179592-6.269388-10.44898-2.089796-16.718367 2.089796-6.269388 8.359184-8.359184 14.628572-8.359184h8.359183v-81.502041c0-12.538776 10.44898-22.987755 22.987755-22.987755H637.387755c4.179592 0 8.359184 4.179592 8.359184 8.359184V164.571429c0 2.089796 2.089796 4.179592 4.179592 4.179591h25.077551c2.089796 0 4.179592-2.089796 4.179591-4.179591v-54.334694c0-4.179592 4.179592-8.359184 8.359184-8.359184h35.526531c12.538776 0 22.987755 10.44898 22.987755 22.987755V206.367347h8.359184c6.269388 0 10.44898 4.179592 14.628571 8.359184 2.089796 6.269388 0 12.538776-2.089796 16.718367z"  horiz-adv-x="1024" />

    
    <glyph glyph-name="wuzicangku" unicode="&#59051;" d="M512 384m-512 0a512 512 0 1 1 1024 0 512 512 0 1 1-1024 0ZM384 409.6h258.133333c8.533333 0 12.8 6.4 12.8 14.933333V669.866667c0 6.4-6.4 12.8-12.8 12.8H384c-8.533333 0-12.8-6.4-14.933333-12.8v-245.333334c0-8.533333 6.4-14.933333 14.933333-14.933333z m51.2 181.333333c0 8.533333 6.4 14.933333 14.933333 14.933334h128c8.533333 0 14.933333-6.4 14.933334-14.933334v-25.6H448c-8.533333 0-14.933333 6.4-14.933333 14.933334v10.666666z m38.4-219.733333H228.266667c-8.533333 0-14.933333-6.4-14.933334-14.933333v-258.133334c0-8.533333 6.4-12.8 14.933334-12.8h245.333333c8.533333 0 14.933333 6.4 14.933333 14.933334v256c-2.133333 8.533333-8.533333 14.933333-14.933333 14.933333z m-51.2-102.4c0-8.533333-6.4-14.933333-14.933333-14.933333h-115.2c-8.533333 0-14.933333 6.4-14.933334 14.933333v10.666667c0 8.533333 6.4 14.933333 14.933334 14.933333h115.2c8.533333 0 14.933333-6.4 14.933333-14.933333v-10.666667z m362.666667 102.4H539.733333c-8.533333 0-14.933333-6.4-14.933333-14.933333v-258.133334c0-8.533333 6.4-12.8 14.933333-12.8h245.333334c8.533333 0 14.933333 6.4 14.933333 14.933334v256c0 8.533333-6.4 14.933333-14.933333 14.933333z m-66.133334-117.333333h-115.2c-8.533333 0-14.933333 6.4-14.933333 14.933333v10.666667c0 8.533333 6.4 14.933333 14.933333 14.933333h115.2c8.533333 0 14.933333-6.4 14.933334-14.933333v-10.666667c0-8.533333-6.4-14.933333-14.933334-14.933333z"  horiz-adv-x="1024" />

    
    <glyph glyph-name="yiliaodanwei" unicode="&#59052;" d="M512 384m-501.55102 0a501.55102 501.55102 0 1 1 1003.10204 0 501.55102 501.55102 0 1 1-1003.10204 0ZM177.632653 718.367347h668.734694v-668.734694H177.632653zM704.261224 536.555102h-96.130612v62.693878c0 16.718367-14.628571 31.346939-31.346939 31.346938h-129.567346c-16.718367 0-31.346939-14.628571-31.346939-31.346938v-62.693878h-96.130612c-35.526531 0-64.783673-27.167347-64.783674-62.693878V227.265306c0-33.436735 29.257143-62.693878 64.783674-62.693877h386.612244c35.526531 0 64.783673 27.167347 64.783674 62.693877V475.95102c-2.089796 33.436735-31.346939 60.604082-66.87347 60.604082z m-257.044897 62.693878h129.567346v-62.693878h-129.567346v62.693878z m192.261224-277.942858h-96.130612v-91.95102h-64.783674v91.95102h-96.130612v62.693878h96.130612v91.95102h64.783674v-91.95102h96.130612v-62.693878z"  horiz-adv-x="1024" />

    
    <glyph glyph-name="yingjiduiwu" unicode="&#59053;" d="M512 384m-512 0a512 512 0 1 1 1024 0 512 512 0 1 1-1024 0ZM266.666667 629.333333h490.666666v-490.666666h-490.666666zM362.666667 601.6v-315.733333s64 76.8 162.133333 34.133333c38.4-21.333333 72.533333-53.333333 132.266667-53.333333s98.133333 34.133333 98.133333 34.133333V608s-87.466667-87.466667-196.266667-14.933333c-27.733333 21.333333-76.8 42.666667-115.2 32-42.666667-10.666667-81.066667-23.466667-81.066666-23.466667m-70.4-462.933333c-14.933333 0-23.466667 10.666667-23.466667 27.733333V605.866667c0 14.933333 10.666667 23.466667 23.466667 23.466666 14.933333 0 25.6-10.666667 25.6-23.466666v-437.333334c2.133333-19.2-6.4-29.866667-25.6-29.866666z"  horiz-adv-x="1024" />

    
    <glyph glyph-name="yingjizhuanyuan" unicode="&#59054;" d="M512 384m-501.55102 0a501.55102 501.55102 0 1 1 1003.10204 0 501.55102 501.55102 0 1 1-1003.10204 0ZM261.22449 666.122449h501.55102v-564.244898H261.22449zM422.138776 300.408163v-66.873469c0-41.795918 29.257143-75.232653 66.873469-75.232653H532.897959c37.616327 0 66.873469 33.436735 66.87347 75.232653v66.873469c96.130612-20.897959 156.734694-77.322449 156.734693-142.106122v-25.077551c0-14.628571-10.44898-25.077551-22.987755-25.077551H288.391837c-12.538776 0-22.987755 10.44898-22.987755 25.077551v25.077551c2.089796 64.783673 60.604082 121.208163 156.734694 142.106122z m66.873469-54.334694c0 14.628571 10.44898 25.077551 22.987755 25.077551s22.987755-10.44898 22.987755-25.077551v-25.077551c0-14.628571-10.44898-25.077551-22.987755-25.077551s-22.987755 10.44898-22.987755 25.077551v25.077551z m22.987755 62.693878c-56.42449 0-119.118367 79.412245-133.746939 150.465306-10.44898 2.089796-22.987755 10.44898-22.987755 25.077551 0 12.538776 0 37.616327 22.987755 37.616327-2.089796 77.322449 56.42449 137.926531 133.746939 137.92653s137.926531-60.604082 133.746939-137.92653c22.987755 0 22.987755-25.077551 22.987755-37.616327 0-12.538776-10.44898-25.077551-22.987755-25.077551-14.628571-71.053061-77.322449-150.465306-133.746939-150.465306z"  horiz-adv-x="1024" />

    
    <glyph glyph-name="yingjitongdao" unicode="&#59055;" d="M512 384m-512 0a512 512 0 1 1 1024 0 512 512 0 1 1-1024 0ZM494.933333 620.8h125.866667c8.533333 0 14.933333-4.266667 19.2-10.666667l87.466667-108.8c6.4-4.266667 8.533333-12.8 8.533333-21.333333 0-14.933333-10.666667-27.733333-25.6-27.733333-8.533333 0-14.933333 4.266667-19.2 10.666666l-81.066667 100.266667h-46.933333l179.2-224h128c17.066667-4.266667 29.866667-23.466667 25.6-42.666667-4.266667-17.066667-17.066667-27.733333-34.133333-27.733333h-140.8c-29.866667-2.133333-40.533333 12.8-40.533334 12.8l-68.266666 83.2-81.066667-85.333333 32-157.866667v-8.533333c0-19.2-14.933333-36.266667-34.133333-36.266667-17.066667 0-29.866667 12.8-32 29.866667l-40.533334 192c-6.4 25.6 2.133333 40.533333 6.4 44.8l59.733334 66.133333-61.866667 81.066667v-49.066667s0-32-34.133333-32h-115.2c-6.4 0-12.8 4.266667-17.066667 8.533333-10.666667 10.666667-10.666667 29.866667 0 40.533334 4.266667 4.266667 10.666667 8.533333 17.066667 8.533333H405.333333v81.066667c8.533333 8.533333 89.6 72.533333 89.6 72.533333z m-234.666666-292.266667L213.333333 277.333333h179.2c40.533333 0 40.533333-61.866667-2.133333-61.866666H213.333333l46.933334-51.2c25.6-27.733333-12.8-70.4-38.4-42.666667l-91.733334 100.266667c-12.8 14.933333-12.8 34.133333 0 49.066666l91.733334 100.266667c25.6 27.733333 66.133333-12.8 38.4-42.666667z m155.733333 364.8c29.866667 0 51.2-25.6 51.2-55.466666 0-32-23.466667-57.6-51.2-57.6-27.733333 0-51.2 25.6-51.2 57.6 0 29.866667 23.466667 55.466667 51.2 55.466666z"  horiz-adv-x="1024" />

    
    <glyph glyph-name="yingjishijian" unicode="&#59056;" d="M512 384m-501.55102 0a501.55102 501.55102 0 1 1 1003.10204 0 501.55102 501.55102 0 1 1-1003.10204 0ZM188.081633 749.714286H867.265306v-679.183674H188.081633zM672.914286 490.579592c-16.718367 0-33.436735-6.269388-45.97551-14.628572v6.269388c0 75.232653-56.42449 140.016327-131.657143 140.016327-60.604082 0-112.84898-43.885714-129.567347-102.4-48.065306-12.538776-81.502041-56.42449-81.502041-110.759184 0-56.42449 37.616327-104.489796 89.861224-112.84898h35.526531l140.016327 83.591837c8.359184 4.179592 14.628571 6.269388 25.077551 6.269388 18.808163 0 35.526531-10.44898 41.795918-27.167347 8.359184-16.718367 4.179592-35.526531-8.359184-50.155102l-10.448979-12.538776h83.591836c45.97551 4.179592 83.591837 45.97551 83.591837 96.130613 2.089796 52.244898-39.706122 98.220408-91.95102 98.220408zM570.514286 342.204082l-154.644898-91.951021c-4.179592-2.089796-4.179592-8.359184 0-10.448979l64.783673-45.975511c2.089796-2.089796 4.179592-6.269388 2.089796-8.359183l-48.065306-81.502041c-4.179592-6.269388 4.179592-12.538776 8.359184-8.359184l123.297959 91.951021c2.089796 2.089796 4.179592 6.269388 0 10.448979L509.910204 248.163265c-2.089796 2.089796-2.089796 6.269388 0 8.359184l68.963265 79.412245c4.179592 4.179592-2.089796 10.44898-8.359183 6.269388z"  horiz-adv-x="1024" />

    
    <glyph glyph-name="dizhizaihai" unicode="&#59057;" d="M512 384m-501.55102 0a501.55102 501.55102 0 1 1 1003.10204 0 501.55102 501.55102 0 1 1-1003.10204 0ZM296.75102 666.122449H825.469388v-528.718367H296.75102zM819.2 246.073469l-6.269388 33.436735 37.616327 27.167347 37.616326-27.167347v-35.526531l-41.795918-14.628571c-10.44898-4.179592-22.987755 2.089796-27.167347 14.628571v2.089796z m-560.065306-106.579591V628.506122c0 12.538776 8.359184 20.897959 20.897959 20.89796 6.269388 0 14.628571-4.179592 16.718367-10.44898l94.040817-150.465306 37.616326-10.44898-16.718367-91.95102 56.42449-87.771429-33.436735-71.053061 71.053061 81.502041-71.053061 94.040816 35.526531 62.693878 62.693877-20.897959 50.155102-108.669388 171.363266-77.322449 98.220408-102.4c8.359184-8.359184 8.359184-20.897959 0-29.257143-4.179592-4.179592-8.359184-6.269388-14.628572-6.269388l-557.97551-2.089796c-12.538776 0-20.897959 8.359184-20.897959 20.89796zM652.016327 352.653061l41.795918 56.42449 41.795918-20.897959 4.179592-31.346939-35.526531-45.97551-52.244897 41.795918z m-91.951021 148.37551l41.795918 56.42449 81.502041-27.167347V498.938776l-77.322449-45.975511-45.97551 48.065306z m-171.363265 77.322449l16.718367 60.604082h41.795919l20.897959-41.795918-16.718368-16.718368h-62.693877z"  horiz-adv-x="1024" />

    
    <glyph glyph-name="zhongyaogongcheng" unicode="&#59058;" d="M512 384m-501.55102 0a501.55102 501.55102 0 1 1 1003.10204 0 501.55102 501.55102 0 1 1-1003.10204 0ZM208.979592 749.714286h647.836735v-647.836735h-647.836735zM499.461224 580.440816c35.526531 0 64.783673 29.257143 64.783674 64.783674 0 33.436735-29.257143 62.693878-62.693878 62.693877-35.526531 0-64.783673-29.257143-64.783673-64.783673 2.089796-35.526531 29.257143-62.693878 62.693877-62.693878zM428.408163 325.485714s-77.322449 37.616327-106.579592 43.885715c-6.269388 2.089796-12.538776-2.089796-14.628571-8.359184-8.359184-33.436735-48.065306-160.914286-58.514286-202.710204-2.089796-8.359184 4.179592-16.718367 12.538776-16.718368h20.897959c4.179592 0 10.44898 2.089796 12.538775 8.359184 12.538776 31.346939 50.155102 144.195918 56.42449 144.195919 41.795918 0 79.412245-54.334694 77.322449-71.053062-2.089796-20.897959-12.538776-43.885714-22.987755-60.604081-4.179592-8.359184 2.089796-18.808163 10.44898-18.808164h25.077551c4.179592 0 8.359184 2.089796 10.448979 6.269388 22.987755 39.706122 31.346939 62.693878 31.346939 77.322449 0 33.436735-35.526531 89.861224-54.334694 98.220408z m386.612245-156.734694l-106.579592 200.620409c-16.718367 29.257143-52.244898 8.359184-71.053061-20.89796l-45.97551-64.783673-25.077551 22.987755v10.44898c-8.359184 45.97551-41.795918 202.710204-68.963265 227.787755l-2.089796 2.089796-79.412245 41.795918c-4.179592 2.089796-8.359184 2.089796-12.538776 2.089796-27.167347-2.089796-89.861224-10.44898-110.759183-12.538776-4.179592 0-8.359184-2.089796-8.359184-6.269387-6.269388-12.538776-25.077551-43.885714-35.526531-66.87347-4.179592-10.44898-2.089796-20.897959 6.269388-27.167347l14.628571-10.448979 48.065307-35.526531c4.179592-4.179592 6.269388-8.359184 4.179591-14.628571-4.179592-12.538776 0-4.179592-2.089795-10.44898s2.089796-12.538776 8.359183-14.628571c20.897959-8.359184 79.412245-37.616327 102.4-43.885715 6.269388-2.089796 4.179592 4.179592 8.359184 10.44898l-2.089796 4.179592 137.926531-106.579592-54.334694-94.040816c-4.179592-8.359184 2.089796-18.808163 10.448979-18.808164h271.67347c10.44898-2.089796 18.808163 12.538776 12.538775 25.077551zM361.534694 521.926531c-6.269388-10.44898-12.538776-25.077551-18.808163-41.795919-4.179592-8.359184-14.628571-10.44898-20.89796-4.179592L296.75102 498.938776c-2.089796 2.089796 10.44898 25.077551 16.718368 35.52653 2.089796 4.179592 6.269388 6.269388 12.538775 6.269388h27.167347c6.269388 0 12.538776-10.44898 8.359184-18.808163z m85.681633-123.29796l16.718367 41.795919c4.179592 10.44898 20.897959 10.44898 22.987755 0 8.359184-29.257143 22.987755-73.142857 35.526531-104.489796l-75.232653 62.693877z"  horiz-adv-x="1024" />

    
    <glyph glyph-name="shuiwenshuju" unicode="&#59059;" d="M512 384m-512 0a512 512 0 1 1 1024 0 512 512 0 1 1-1024 0ZM219.733333 548.266667c-8.533333-6.4-21.333333-8.533333-29.866666-2.133334-10.666667 4.266667-17.066667 14.933333-17.066667 25.6-2.133333 10.666667 4.266667 21.333333 12.8 27.733334C298.666667 682.666667 416 682.666667 526.933333 597.333333c87.466667-68.266667 174.933333-68.266667 270.933334 0 12.8 10.666667 32 6.4 42.666666-6.4s6.4-32-6.4-42.666666c-115.2-83.2-232.533333-83.2-343.466666 0-89.6 68.266667-177.066667 68.266667-270.933334 0z m0-185.6c-8.533333-6.4-21.333333-8.533333-29.866666-2.133334-10.666667 2.133333-17.066667 12.8-19.2 23.466667-2.133333 10.666667 4.266667 21.333333 12.8 27.733333 115.2 83.2 232.533333 83.2 343.466666 0 87.466667-68.266667 174.933333-68.266667 270.933334 0 12.8 10.666667 32 6.4 42.666666-6.4s6.4-32-6.4-42.666666c-115.2-83.2-232.533333-83.2-343.466666 0-89.6 68.266667-177.066667 68.266667-270.933334 0z m0-192c-8.533333-6.4-21.333333-8.533333-29.866666-2.133334-10.666667 4.266667-17.066667 12.8-19.2 23.466667-2.133333 10.666667 4.266667 21.333333 12.8 27.733333 115.2 83.2 232.533333 83.2 343.466666 0 87.466667-68.266667 174.933333-68.266667 270.933334 0 12.8 10.666667 32 6.4 42.666666-6.4s6.4-32-6.4-42.666666c-115.2-83.2-232.533333-83.2-343.466666 0-89.6 68.266667-177.066667 68.266667-270.933334 0z"  horiz-adv-x="1024" />

    
    <glyph glyph-name="weixianyuan" unicode="&#59060;" d="M512 384m-501.55102 0a501.55102 501.55102 0 1 1 1003.10204 0 501.55102 501.55102 0 1 1-1003.10204 0ZM219.428571 676.571429h585.142858v-585.142858H219.428571zM804.571429 384c0 20.897959-22.987755 290.481633-294.661225 290.481633-242.416327 0-288.391837-242.416327-288.391837-290.481633 0-179.722449 169.273469-208.979592 169.27347-208.979592-8.359184-48.065306 25.077551-81.502041 77.322449-58.514286 43.885714-29.257143 75.232653-2.089796 75.232653-2.089795 35.526531-18.808163 89.861224 4.179592 83.591837 60.604081 0 0 177.632653 35.526531 177.632653 208.979592zM390.791837 310.857143c-45.97551 0-81.502041 41.795918-81.502041 94.040816S344.816327 498.938776 390.791837 498.938776s81.502041-41.795918 81.502041-94.040817c0-50.155102-35.526531-94.040816-81.502041-94.040816z m156.734694-48.065306c-2.089796-33.436735-58.514286-43.885714-64.783674 0 0 8.359184 8.359184 43.885714 31.346939 43.885714 27.167347-2.089796 35.526531-33.436735 33.436735-43.885714z m85.681632 48.065306c-45.97551 0-81.502041 41.795918-81.502041 94.040816s35.526531 94.040816 81.502041 94.040817 81.502041-41.795918 81.502041-94.040817c0-50.155102-35.526531-94.040816-81.502041-94.040816z"  horiz-adv-x="1024" />

    
    <glyph glyph-name="jiankongziyuan" unicode="&#59061;" d="M512 384m-501.55102 0a501.55102 501.55102 0 1 1 1003.10204 0 501.55102 501.55102 0 1 1-1003.10204 0ZM250.77551 624.326531h522.44898v-522.44898h-522.44898zM739.787755 509.387755l-98.220408-79.412245v64.783674c0 18.808163-14.628571 33.436735-33.436735 33.436734h-292.571428c-18.808163 0-33.436735-14.628571-33.436735-33.436734v-261.22449c0-18.808163 14.628571-33.436735 33.436735-33.436735h294.661224c18.808163 0 33.436735 14.628571 33.436735 33.436735v64.783673l98.220408-79.412245V509.387755z"  horiz-adv-x="1024" />

    
    <glyph glyph-name="binanchangsuo" unicode="&#59062;" d="M512 384m-501.55102 0a501.55102 501.55102 0 1 1 1003.10204 0 501.55102 501.55102 0 1 1-1003.10204 0ZM208.979592 697.469388h606.040816v-606.040817h-606.040816zM748.146939 419.526531L524.538776 645.22449c-4.179592 4.179592-8.359184 6.269388-12.538776 6.269388s-10.44898-2.089796-12.538776-6.269388L275.853061 419.526531c-8.359184-8.359184-10.44898-18.808163-6.269388-29.257143 4.179592-10.44898 14.628571-16.718367 25.077551-16.718368H323.918367v-198.530612c0-14.628571 12.538776-27.167347 27.167347-27.167347h96.130613c14.628571 0 27.167347 12.538776 27.167346 27.167347V269.061224H553.795918v-94.040816c0-14.628571 12.538776-27.167347 27.167347-27.167347h96.130613c14.628571 0 27.167347 12.538776 27.167346 27.167347V373.55102h31.346939c10.44898 0 20.897959 6.269388 25.077551 16.718368-2.089796 8.359184-4.179592 20.897959-12.538775 29.257143z"  horiz-adv-x="1024" />

    
    <glyph glyph-name="renyuanweizhi" unicode="&#59063;" d="M512 384m-501.55102 0a501.55102 501.55102 0 1 1 1003.10204 0 501.55102 501.55102 0 1 1-1003.10204 0ZM240.326531 643.134694h518.269387v-518.269388H240.326531zM499.461224 643.134694c114.938776 0 206.889796-91.95102 206.889796-206.889796 0-22.987755-6.269388-48.065306-20.897959-79.412245-4.179592 2.089796-8.359184 2.089796-12.538775 4.179592-6.269388 2.089796-12.538776 2.089796-18.808164 2.089796-4.179592 0-10.44898 0-14.628571-2.089796-6.269388 0-10.44898-2.089796-16.718367-4.179592-6.269388-2.089796-10.44898-6.269388-14.628572-10.44898-6.269388-4.179592-10.44898-10.44898-14.628571-16.718367-4.179592-6.269388-8.359184-14.628571-10.44898-22.987755-2.089796-8.359184-4.179592-16.718367-4.179592-22.987755-2.089796-8.359184-2.089796-16.718367-2.089796-27.167347-2.089796-2.089796-4.179592-4.179592-4.179591-6.269388 0-2.089796-2.089796-6.269388-2.089796-8.359183 0-4.179592 0-6.269388 2.089796-10.44898 0-4.179592 2.089796-6.269388 4.179591-8.359184 2.089796-2.089796 2.089796-4.179592 4.179592-4.179592 2.089796-2.089796 2.089796-2.089796 4.179592-2.089795 0-4.179592 2.089796-8.359184 4.179592-10.44898l-2.089796 4.179592-4.179592-4.179592-58.514285-66.873469c-6.269388-6.269388-14.628571-10.44898-25.077552-10.44898-8.359184 0-16.718367 4.179592-22.987755 10.44898-4.179592 4.179592-50.155102 52.244898-94.040816 110.759183-58.514286 79.412245-89.861224 144.195918-89.861224 190.171429 0 108.669388 91.95102 202.710204 206.889795 202.710204z m0-110.759184c-54.334694 0-96.130612-43.885714-96.130612-96.130612s43.885714-96.130612 96.130612-96.130612S595.591837 384 595.591837 436.244898s-43.885714 96.130612-96.130613 96.130612zM664.555102 342.204082c4.179592 0 10.44898 0 14.628571-2.089796 4.179592-2.089796 10.44898-2.089796 14.628572-4.179592l12.538775-6.269388c2.089796-2.089796 6.269388-4.179592 8.359184-8.359184 4.179592-6.269388 8.359184-12.538776 10.44898-18.808163 2.089796-6.269388 4.179592-12.538776 4.179592-20.897959s2.089796-14.628571 2.089795-22.987755c2.089796 0 2.089796-2.089796 2.089796-4.179592s2.089796-4.179592 2.089796-4.179592v-8.359183c0-4.179592 0-6.269388-2.089796-8.359184 0-2.089796-2.089796-4.179592-4.179591-6.269388-2.089796-2.089796-2.089796-2.089796-4.179592-2.089796 0-2.089796-2.089796-6.269388-2.089796-8.359183 0-2.089796-2.089796-4.179592-2.089796-6.269388 0-2.089796-2.089796-4.179592-4.179592-6.269388-2.089796-2.089796-6.269388-4.179592-8.359184-6.269388-2.089796-2.089796-4.179592-6.269388-4.179592-10.448979v-8.359184c0-2.089796 0-6.269388 2.089796-8.359184 2.089796-2.089796 4.179592-6.269388 6.269388-8.359183 4.179592-2.089796 6.269388-6.269388 10.44898-6.269388 4.179592-2.089796 8.359184-4.179592 14.628571-4.179592 4.179592-2.089796 10.44898-4.179592 14.628572-4.179592l12.538775-6.269388c4.179592-2.089796 6.269388-6.269388 8.359184-12.538775 0-4.179592 2.089796-6.269388 2.089796-10.44898v-25.077551c0-2.089796-2.089796-6.269388-2.089796-8.359183-2.089796-2.089796-4.179592-4.179592-8.359184-4.179592-4.179592-2.089796-10.44898-2.089796-14.628571-4.179592-6.269388-2.089796-12.538776-2.089796-20.897959-4.179592-8.359184 0-14.628571-2.089796-22.987756-2.089796-6.269388 0-14.628571-2.089796-20.897959-2.089796h-33.436734c-6.269388 0-12.538776 0-20.89796 2.089796-6.269388 0-14.628571 2.089796-20.897959 2.089796-6.269388 0-12.538776 2.089796-18.808163 2.089796-6.269388 0-10.44898 2.089796-14.628572 2.089796-2.089796 0-4.179592 2.089796-8.359183 2.089796-2.089796 4.179592-4.179592 8.359184-4.179592 12.538775 0 10.44898 0 18.808163 2.089796 29.257143 0 6.269388 4.179592 12.538776 8.359184 14.628572 4.179592 4.179592 8.359184 6.269388 14.628571 8.359183 6.269388 2.089796 12.538776 4.179592 16.718367 6.269388 6.269388 2.089796 10.44898 4.179592 16.718368 6.269388 2.089796 2.089796 6.269388 4.179592 8.359183 6.269388 2.089796 2.089796 4.179592 4.179592 4.179592 6.269387 0 2.089796 2.089796 4.179592 2.089796 6.269388v8.359184c0 4.179592-2.089796 8.359184-4.179592 10.448979-2.089796 2.089796-6.269388 4.179592-8.359183 8.359184-6.269388 4.179592-8.359184 6.269388-8.359184 8.359184 0 2.089796-2.089796 4.179592-2.089796 6.269388 0 2.089796-2.089796 6.269388-2.089796 8.359183-2.089796 0-2.089796 2.089796-4.179592 2.089796l-4.179592 4.179592c-2.089796 2.089796-2.089796 4.179592-2.089796 6.269388 0 2.089796-2.089796 6.269388-2.089795 8.359183 0 2.089796 0 4.179592 2.089795 6.269388 0 2.089796 2.089796 4.179592 4.179592 6.269388 0 6.269388 0 14.628571 2.089796 20.897959 0 6.269388 2.089796 12.538776 4.179592 18.808163 2.089796 6.269388 4.179592 12.538776 8.359184 18.808164 2.089796 4.179592 6.269388 8.359184 10.448979 12.538775 4.179592 2.089796 8.359184 6.269388 12.538776 8.359184 4.179592 2.089796 8.359184 2.089796 12.538775 4.179592h8.359184z"  horiz-adv-x="1024" />

    
    <glyph glyph-name="renkouxinxi" unicode="&#59064;" d="M512 384m-501.55102 0a501.55102 501.55102 0 1 1 1003.10204 0 501.55102 501.55102 0 1 1-1003.10204 0ZM271.673469 624.326531H741.877551v-470.204082H271.673469zM426.318367 618.057143c6.269388 0 14.628571 0 20.89796-2.089796l18.808163-6.269388c6.269388-2.089796 10.44898-6.269388 16.718367-10.448979 4.179592-2.089796 8.359184-6.269388 10.44898-10.44898 6.269388-8.359184 10.44898-16.718367 14.628571-27.167347 2.089796-4.179592 2.089796-8.359184 2.089796-12.538775-10.44898-4.179592-14.628571-6.269388-20.897959-12.538776-6.269388-6.269388-10.44898-10.44898-14.628572-16.718367-4.179592-4.179592-8.359184-16.718367-10.448979-25.077551 0-4.179592-4.179592-18.808163-4.179592-27.167347 0-4.179592-2.089796-14.628571-2.089796-29.257143-2.089796-2.089796-4.179592-4.179592-4.179592-8.359184-4.179592-2.089796-4.179592-4.179592-4.179592-8.359183s0-6.269388 2.089796-12.538776 2.089796-4.179592 4.179592-10.44898c4.179592-6.269388 6.269388-6.269388 10.44898-8.359183 2.089796-4.179592 4.179592-12.538776 4.179592-12.538776s2.089796-6.269388 4.179591-10.448979c2.089796-6.269388 4.179592-8.359184 4.179592-8.359184l10.44898-10.44898c2.089796-2.089796 6.269388-6.269388 6.269388-14.628571v-10.44898c0-4.179592 0-6.269388-2.089796-10.448979-2.089796 0-2.089796-2.089796-6.269388-6.269388-2.089796-2.089796-6.269388-6.269388-12.538776-10.44898-4.179592-4.179592-12.538776-6.269388-22.987755-10.448979-8.359184-2.089796-14.628571-4.179592-25.077551-8.359184-12.538776-4.179592-12.538776-6.269388-18.808163-10.448979-12.538776-10.44898-12.538776-22.987755-12.538775-22.987756s-2.089796-8.359184-2.089796-12.538775c-8.359184 0-14.628571 2.089796-22.987755 2.089796-10.44898 0-18.808163 2.089796-29.257143 2.089796-8.359184 0-18.808163 2.089796-27.167347 4.179592s-14.628571 2.089796-20.897959 4.179591c-4.179592 0-6.269388 2.089796-10.44898 4.179592-4.179592 6.269388-6.269388 12.538776-6.269388 18.808164-2.089796 14.628571 0 27.167347 2.089796 41.795918 0 8.359184 4.179592 16.718367 10.44898 20.897959 6.269388 4.179592 12.538776 8.359184 20.897959 12.538776 8.359184 2.089796 16.718367 6.269388 25.077551 8.359183 8.359184 2.089796 14.628571 6.269388 22.987755 10.44898 4.179592 2.089796 8.359184 6.269388 12.538776 10.448979 2.089796 2.089796 4.179592 6.269388 6.269387 8.359184 2.089796 2.089796 2.089796 6.269388 2.089796 10.44898v10.448979c0 6.269388-2.089796 10.44898-6.269388 14.628572-4.179592 4.179592-8.359184 6.269388-10.448979 10.448979-2.089796 2.089796-4.179592 4.179592-4.179592 8.359184-2.089796 4.179592-2.089796 6.269388-4.179592 10.44898s-2.089796 8.359184-4.179592 12.538775c-2.089796 0-4.179592 2.089796-4.179591 2.089796-2.089796 2.089796-4.179592 4.179592-4.179592 6.269388-2.089796 2.089796-4.179592 6.269388-4.179592 10.448979-2.089796 4.179592-2.089796 8.359184-2.089796 12.538776 0 4.179592 0 6.269388 2.089796 8.359184 2.089796 2.089796 2.089796 6.269388 4.179592 8.359183 0 10.44898 0 18.808163 2.089796 29.257143 2.089796 8.359184 2.089796 18.808163 4.179591 27.167347s6.269388 16.718367 10.44898 25.077551c4.179592 6.269388 8.359184 12.538776 14.628571 16.718367 6.269388 4.179592 10.44898 8.359184 16.718368 10.44898 6.269388 2.089796 12.538776 4.179592 18.808163 4.179592h18.808163zM583.053061 547.004082c6.269388 0 14.628571 0 20.897959-2.089796l18.808164-6.269388c6.269388-2.089796 10.44898-6.269388 16.718367-10.44898 4.179592-2.089796 8.359184-6.269388 10.44898-10.448979 6.269388-8.359184 10.44898-16.718367 14.628571-27.167347 2.089796-8.359184 4.179592-18.808163 6.269388-29.257143 2.089796-10.44898 2.089796-20.897959 2.089796-31.346939l4.179592-4.179592c0-2.089796 2.089796-4.179592 2.089795-6.269387v-10.44898c0-4.179592-2.089796-8.359184-2.089795-12.538775-2.089796-2.089796-4.179592-6.269388-6.269388-8.359184-2.089796-2.089796-4.179592-4.179592-6.269388-4.179592-2.089796-4.179592-2.089796-8.359184-4.179592-12.538776-2.089796-4.179592-2.089796-6.269388-4.179592-10.448979-2.089796-2.089796-4.179592-6.269388-6.269387-8.359184-4.179592-4.179592-8.359184-6.269388-10.44898-10.448979-4.179592-4.179592-6.269388-8.359184-6.269388-14.628572v-12.538775c0-4.179592 2.089796-8.359184 2.089796-12.538776 2.089796-4.179592 4.179592-8.359184 8.359184-10.448979 4.179592-4.179592 10.44898-8.359184 16.718367-10.44898l18.808163-6.269388c6.269388-2.089796 14.628571-4.179592 20.89796-6.269388 6.269388-2.089796 12.538776-6.269388 18.808163-10.448979 6.269388-4.179592 8.359184-10.44898 10.44898-16.718367 2.089796-4.179592 2.089796-10.44898 2.089795-14.628572v-18.808163c0-6.269388 0-12.538776-2.089795-16.718367 0-4.179592-2.089796-8.359184-4.179592-12.538776-2.089796-2.089796-6.269388-4.179592-10.44898-6.269388-6.269388-2.089796-14.628571-4.179592-20.897959-4.179592-8.359184-2.089796-16.718367-4.179592-27.167347-4.179591-8.359184 0-18.808163 0-29.257143-2.089796-10.44898 0-20.897959-2.089796-29.257143-2.089796h-50.155102c-8.359184 0-18.808163 2.089796-29.257143 2.089796-10.44898 0-18.808163 2.089796-29.257143 2.089796-8.359184 0-18.808163 2.089796-27.167346 4.179591s-14.628571 2.089796-20.89796 4.179592c-4.179592 0-6.269388 2.089796-10.448979 4.179592-4.179592 6.269388-6.269388 12.538776-6.269388 18.808163-2.089796 14.628571 0 27.167347 2.089796 41.795919 0 8.359184 4.179592 16.718367 10.44898 20.897959 6.269388 4.179592 12.538776 8.359184 20.897959 12.538775 8.359184 2.089796 16.718367 6.269388 25.077551 8.359184 8.359184 2.089796 14.628571 6.269388 22.987755 10.44898 4.179592 2.089796 8.359184 6.269388 12.538775 10.448979 2.089796 2.089796 4.179592 6.269388 6.269388 8.359184 2.089796 2.089796 2.089796 6.269388 2.089796 10.44898v10.448979c0 6.269388-2.089796 10.44898-6.269388 14.628572-4.179592 4.179592-8.359184 6.269388-10.448979 10.448979-2.089796 2.089796-4.179592 4.179592-4.179592 8.359184-2.089796 4.179592-2.089796 6.269388-4.179592 10.448979s-2.089796 8.359184-4.179592 12.538776c-2.089796 0-4.179592 2.089796-4.179592 2.089796-2.089796 2.089796-4.179592 4.179592-4.179592 6.269388-6.269388 0-8.359184 2.089796-8.359183 6.269387-2.089796 4.179592-2.089796 8.359184-2.089796 12.538776 0 4.179592 0 6.269388 2.089796 8.359184 2.089796 2.089796 2.089796 6.269388 4.179592 8.359183 0 10.44898 0 18.808163 2.089796 29.257143 2.089796 8.359184 2.089796 18.808163 4.179591 27.167347s6.269388 16.718367 10.44898 25.077551c4.179592 6.269388 8.359184 12.538776 14.628571 16.718367 6.269388 4.179592 10.44898 8.359184 16.718368 10.44898 6.269388 2.089796 12.538776 4.179592 18.808163 4.179592 8.359184 2.089796 14.628571 4.179592 20.897959 4.179592z"  horiz-adv-x="1024" />

    
    <glyph glyph-name="o-shujutongji1" unicode="&#59011;" d="M512 384m-512 0a512 512 0 1 1 1024 0 512 512 0 1 1-1024 0ZM326.4 387.2h48c19.2 0 32-12.8 32-32v-172.8c0-19.2-12.8-32-32-32h-48c-19.2 0-32 12.8-32 32v172.8c0 19.2 12.8 32 32 32zM652.8 502.4h48c19.2 0 32-12.8 32-32v-288c0-19.2-12.8-32-32-32h-48c-19.2 0-32 12.8-32 32v288c0 19.2 12.8 32 32 32zM489.6 617.6h48c19.2 0 32-12.8 32-32v-403.2c0-19.2-12.8-32-32-32h-48c-19.2 0-32 12.8-32 32V585.6c0 19.2 12.8 32 32 32z"  horiz-adv-x="1024" />

    
    <glyph glyph-name="l-shujutongjibeifen1" unicode="&#59049;" d="M326.4 387.2h48c19.2 0 32-12.8 32-32v-172.8c0-19.2-12.8-32-32-32h-48c-19.2 0-32 12.8-32 32v172.8c0 19.2 12.8 32 32 32zM652.8 502.4h48c19.2 0 32-12.8 32-32v-288c0-19.2-12.8-32-32-32h-48c-19.2 0-32 12.8-32 32v288c0 19.2 12.8 32 32 32zM489.6 617.6h48c19.2 0 32-12.8 32-32v-403.2c0-19.2-12.8-32-32-32h-48c-19.2 0-32 12.8-32 32V585.6c0 19.2 12.8 32 32 32z"  horiz-adv-x="1024" />

    
    <glyph glyph-name="daiban" unicode="&#59045;" d="M857.6 608L640 825.6c-6.4 0-12.8 6.4-25.6 6.4H192c-19.2 0-32-12.8-32-32v-832c0-19.2 12.8-32 32-32h640c19.2 0 32 12.8 32 32V582.4c0 12.8-6.4 19.2-6.4 25.6z m-70.4-38.4H601.6V755.2l185.6-185.6z m6.4-563.2H230.4V761.6h300.8v-217.6c0-25.6 19.2-44.8 44.8-44.8h217.6v-492.8z"  horiz-adv-x="1024" />

    
    <glyph glyph-name="yiban" unicode="&#59046;" d="M294.4 646.4l-6.4-57.6c0-6.4 6.4-6.4 6.4-6.4h384c6.4 0 6.4 6.4 6.4 6.4V640c0 6.4-6.4 6.4-6.4 6.4h-384z m185.6-147.2H294.4c-6.4 0-6.4-6.4-6.4-6.4V448c0-6.4 6.4-6.4 6.4-6.4h185.6c6.4 0 6.4 6.4 6.4 6.4v44.8c0 6.4 0 6.4-6.4 6.4z m-44.8-454.4H204.8v704H768v-320c0-6.4 6.4-6.4 6.4-6.4h57.6c6.4 0 6.4 6.4 6.4 6.4V787.2c0 19.2-12.8 32-32 32h-640c-19.2 0-32-12.8-32-32v-780.8c0-19.2 12.8-32 32-32h262.4c6.4 0 6.4 6.4 6.4 6.4v64c6.4-6.4 0 0 0 0z m435.2 89.6h-140.8v38.4c44.8 12.8 76.8 57.6 76.8 108.8 0 64-51.2 115.2-115.2 115.2s-108.8-57.6-108.8-121.6c0-51.2 32-96 76.8-108.8v-38.4H518.4c-6.4 0-12.8-6.4-12.8-12.8v-153.6c0-6.4 6.4-12.8 12.8-12.8h352c6.4 0 12.8 6.4 12.8 12.8v153.6c6.4 6.4 0 19.2-12.8 19.2z m-224 140.8c0 25.6 25.6 51.2 51.2 51.2s51.2-25.6 51.2-51.2-25.6-51.2-51.2-51.2-51.2 25.6-51.2 51.2z m179.2-262.4H563.2v57.6h262.4v-57.6z"  horiz-adv-x="1024" />

    
    <glyph glyph-name="banjie" unicode="&#59047;" d="M691.2 582.4v51.2c0 6.4-6.4 6.4-6.4 6.4h-384c-6.4 0-12.8-6.4-12.8-6.4v-51.2l6.4-6.4h384c6.4 0 12.8 6.4 12.8 6.4zM294.4 499.2c-6.4 0-6.4-6.4-6.4-6.4v-51.2c0-6.4 6.4-6.4 6.4-6.4h185.6c6.4 0 6.4 6.4 6.4 6.4v44.8c0 6.4-6.4 6.4-6.4 6.4H294.4z m377.6-121.6c-121.6 0-217.6-96-217.6-217.6s96-217.6 217.6-217.6 217.6 96 217.6 217.6-96 217.6-217.6 217.6z m108.8-320c-25.6-25.6-64-44.8-108.8-44.8s-76.8 12.8-108.8 44.8-44.8 64-44.8 108.8 12.8 76.8 44.8 108.8 64 44.8 108.8 44.8 76.8-12.8 108.8-44.8 44.8-64 44.8-108.8-19.2-83.2-44.8-108.8z m-19.2 185.6h-44.8s-6.4 0-6.4-6.4l-64-89.6-25.6 32-6.4 6.4H576c-6.4 0-12.8-6.4-6.4-12.8l76.8-102.4c6.4-6.4 12.8-6.4 12.8 0l115.2 160s-6.4 12.8-12.8 12.8z m-320-198.4H204.8v704H768v-345.6c0-6.4 6.4-6.4 6.4-6.4h57.6c6.4 0 6.4 6.4 6.4 6.4v384c0 19.2-12.8 32-32 32h-640c-19.2 0-32-12.8-32-32v-780.8c0-19.2 12.8-32 32-32h268.8c6.4 0 6.4 6.4 6.4 6.4v57.6c6.4 0 0 6.4 0 6.4z"  horiz-adv-x="1024" />

    
    <glyph glyph-name="quanbu" unicode="&#59048;" d="M832 832H192c-19.2 0-32-12.8-32-32v-832c0-19.2 12.8-32 32-32h640c19.2 0 32 12.8 32 32v832c0 19.2-12.8 32-32 32zM230.4 761.6h563.2v-204.8H230.4V761.6z m563.2-480H230.4V486.4h563.2v-204.8z m0-275.2H230.4v204.8h563.2v-204.8zM307.2 652.8c0-19.2 19.2-38.4 38.4-38.4s38.4 19.2 38.4 38.4-19.2 44.8-38.4 44.8-38.4-19.2-38.4-44.8z m0-268.8c0-19.2 19.2-38.4 38.4-38.4S384 364.8 384 384s-19.2 38.4-38.4 38.4-38.4-19.2-38.4-38.4z m0-268.8c0-19.2 19.2-38.4 38.4-38.4s38.4 12.8 38.4 38.4-19.2 38.4-38.4 38.4-38.4-19.2-38.4-38.4z"  horiz-adv-x="1024" />

    
    <glyph glyph-name="ditu" unicode="&#59044;" d="M987.858824 94.870588l-96.376471 313.22353c-6.023529 30.117647-36.141176 48.188235-66.258824 48.188235h-78.305882c-48.188235-78.305882-120.470588-144.564706-168.658823-192.752941l-6.02353-6.02353c-18.070588-18.070588-42.164706-24.094118-66.258823-24.094117-24.094118 0-48.188235 12.047059-66.258824 24.094117l-12.047059 6.02353c-36.141176 48.188235-108.423529 114.447059-156.611764 192.752941H192.752941c-30.117647 0-54.211765-18.070588-66.258823-48.188235L36.141176 100.89411800000005c-18.070588-48.188235 30.117647-96.376471 78.305883-84.329412l210.823529 54.211765c18.070588 6.023529 42.164706 0 54.211765-12.047059L542.117647-67.76470600000005c18.070588-12.047059 36.141176-18.070588 60.235294-12.047059l343.341177 90.352941c18.070588 6.023529 30.117647 18.070588 42.164706 30.117648s6.023529 36.141176 0 54.211764zM493.929412 299.67058799999995c12.047059-12.047059 30.117647-12.047059 42.164706 0 72.282353 72.282353 216.847059 198.776471 216.847058 343.341177C752.941176 775.529412 644.517647 877.929412 518.023529 877.929412s-240.941176-102.4-240.941176-234.917647c0-144.564706 138.541176-271.058824 216.847059-343.341177z m18.070588 433.694118c30.117647 0 60.235294-18.070588 78.305882-42.164706 18.070588-30.117647 18.070588-60.235294 0-90.352941s-48.188235-42.164706-78.305882-42.164706C463.811765 558.6823529999999 421.647059 594.823529 421.647059 643.011765s42.164706 90.352941 90.352941 90.352941z"  horiz-adv-x="1024" />

    
    <glyph glyph-name="chuzhijilu" unicode="&#59039;" d="M691.2 633.6c0 6.4-6.4 6.4-6.4 6.4h-384c-6.4 0-12.8-6.4-12.8-6.4v-51.2l6.4-6.4h384c6.4 0 6.4 6.4 6.4 6.4l6.4 51.2z m-12.8-134.4h-384c-6.4 0-6.4-6.4-6.4-6.4v-51.2c0-6.4 6.4-6.4 6.4-6.4h384c6.4 0 6.4 6.4 6.4 6.4v44.8c6.4 6.4 0 12.8-6.4 12.8zM480 352H294.4c-6.4 0-6.4-6.4-6.4-6.4v-51.2c0-6.4 6.4-6.4 6.4-6.4h185.6c6.4 0 6.4 6.4 6.4 6.4v51.2s0 6.4-6.4 6.4z m-44.8-307.2H204.8v704H768v-345.6c0-6.4 6.4-6.4 6.4-6.4h57.6c6.4 0 6.4 6.4 6.4 6.4v384c0 19.2-12.8 32-32 32h-640c-19.2 0-32-12.8-32-32v-780.8c0-19.2 12.8-32 32-32h262.4c6.4 0 6.4 6.4 6.4 6.4v64c6.4-6.4 0 0 0 0z m352 76.8c32 25.6 44.8 64 44.8 108.8 0 76.8-64 140.8-140.8 140.8s-140.8-64-140.8-140.8c0-44.8 19.2-83.2 44.8-108.8-57.6-32-96-89.6-102.4-160 0-6.4 6.4-6.4 6.4-6.4h51.2c6.4 0 6.4 6.4 6.4 6.4 6.4 70.4 64 121.6 134.4 121.6s128-57.6 134.4-121.6c0-6.4 6.4-6.4 6.4-6.4h51.2c6.4 0 6.4 6.4 6.4 6.4-6.4 64-44.8 121.6-102.4 160z m-96 185.6c44.8 0 76.8-38.4 76.8-76.8s-38.4-76.8-76.8-76.8-76.8 38.4-76.8 76.8 32 76.8 76.8 76.8z"  horiz-adv-x="1024" />

    
    <glyph glyph-name="tuceng" unicode="&#59040;" d="M940.8 409.6C844.8 608 704 710.4 512 710.4S179.2 608 83.2 409.6c-6.4-19.2-6.4-38.4 0-51.2C179.2 160 320 57.60000000000002 512 57.60000000000002s332.8 102.4 428.8 300.8c6.4 19.2 6.4 32 0 51.2zM512 128c-160 0-281.6 83.2-364.8 256C230.4 556.8 352 640 512 640s281.6-83.2 364.8-256c-83.2-172.8-204.8-256-364.8-256z m-6.4 435.2C409.6 563.2 332.8 480 332.8 384s76.8-179.2 179.2-179.2 179.2 76.8 179.2 179.2-83.2 179.2-185.6 179.2z m0-294.4C448 268.79999999999995 396.8 320 396.8 384S448 499.2 505.6 499.2 620.8 448 620.8 384s-51.2-115.2-115.2-115.2z"  horiz-adv-x="1024" />

    
    <glyph glyph-name="gongxiang" unicode="&#59041;" d="M825.6 198.39999999999998c-25.6 25.6-57.6 44.8-89.6 57.6 44.8 38.4 76.8 89.6 76.8 153.6 0 108.8-89.6 204.8-204.8 198.4-108.8 0-198.4-89.6-198.4-198.4 0-64 32-121.6 76.8-153.6-32-12.8-64-32-83.2-57.6-57.6-57.6-83.2-128-89.6-204.8 0-6.4 6.4-6.4 6.4-6.4h57.6c6.4 0 6.4 6.4 6.4 6.4 0 57.6 25.6 115.2 64 153.6 44.8 44.8 102.4 64 160 64s115.2-25.6 160-64c38.4-38.4 64-96 64-153.6 0-6.4 6.4-6.4 6.4-6.4h57.6c6.4 0 6.4 6.4 6.4 6.4 6.4 76.8-25.6 147.2-76.8 204.8zM614.4 281.6c-38.4 0-70.4 12.8-96 38.4-19.2 25.6-32 57.6-32 96 0 32 12.8 64 38.4 89.6 19.2 19.2 51.2 32 83.2 32s64-12.8 89.6-38.4 38.4-57.6 38.4-89.6-12.8-64-38.4-89.6c-19.2-25.6-51.2-38.4-83.2-38.4zM358.4 384v25.6c0 12.8 0 32 6.4 44.8 0 6.4 0 6.4-6.4 6.4-12.8 12.8-25.6 19.2-38.4 32-25.6 25.6-38.4 57.6-38.4 96 0 32 12.8 64 38.4 83.2 25.6 25.6 57.6 38.4 96 38.4 32 0 64-12.8 83.2-32 6.4-6.4 12.8-19.2 19.2-25.6 0 0 6.4-6.4 6.4 0 19.2 6.4 38.4 12.8 57.6 12.8 6.4 0 6.4 6.4 6.4 12.8-32 64-96 108.8-172.8 108.8-108.8 0-204.8-89.6-204.8-198.4 0-64 32-121.6 76.8-153.6-32-19.2-64-38.4-89.6-64-57.6-57.6-83.2-128-89.6-204.8 0-6.4 6.4-6.4 6.4-6.4h57.6c6.4 0 6.4 6.4 6.4 6.4 0 57.6 25.6 115.2 64 153.6 32 32 64 51.2 102.4 57.6 12.8 0 19.2 6.4 12.8 6.4z"  horiz-adv-x="1024" />

    
    <glyph glyph-name="gongju" unicode="&#59042;" d="M460.8 748.8H160c-6.4 0-19.2-6.4-19.2-12.8v-307.2c0-6.4 12.8-12.8 19.2-12.8h307.2c6.4 0 12.8 6.4 12.8 12.8V736c0 6.4-6.4 12.8-19.2 12.8z m-51.2-262.4H211.2V684.8h198.4v-198.4z m454.4 262.4H563.2c-12.8 0-19.2-6.4-19.2-12.8v-307.2c0-6.4 6.4-12.8 19.2-12.8h307.2c6.4 0 12.8 6.4 12.8 12.8V736c0 6.4-12.8 12.8-19.2 12.8z m-51.2-262.4H614.4V684.8h198.4v-198.4zM460.8 352H160c-6.4 0-19.2-6.4-19.2-12.8v-307.2c0-6.4 6.4-12.8 12.8-12.8h307.2c6.4 0 12.8 6.4 12.8 12.8V339.20000000000005c6.4 6.4 0 12.8-12.8 12.8z m-51.2-268.8H211.2V281.6h198.4v-198.4z m454.4 268.8H563.2c-12.8 0-19.2-6.4-19.2-12.8v-307.2c0-6.4 6.4-12.8 12.8-12.8h307.2c6.4 0 12.8 6.4 12.8 12.8V339.20000000000005c6.4 6.4-6.4 12.8-12.8 12.8z m-51.2-268.8H614.4V281.6h198.4v-198.4z"  horiz-adv-x="1260" />

    
    <glyph glyph-name="zhihui" unicode="&#59043;" d="M320 672H256v57.6c0 6.4-6.4 6.4-6.4 6.4H192l-6.4-6.4v-57.6h-64c-6.4 0-6.4-6.4-6.4-6.4v-563.2c0-6.4 6.4-6.4 6.4-6.4h64v-57.6c0-6.4 6.4-6.4 6.4-6.4h51.2c6.4 0 6.4 6.4 6.4 6.4v57.6h64c6.4 0 6.4 6.4 6.4 6.4V672c6.4-6.4 6.4 0 0 0z m-57.6-505.6H179.2V601.6H256l6.4-435.2z m640 435.2h-64V697.6L832 704h-51.2c-6.4 0-12.8-6.4-12.8-6.4v-96h-64c-6.4 0-6.4-6.4-6.4-6.4v-416c0-6.4 6.4-6.4 6.4-6.4h64v-96c0-6.4 6.4-6.4 6.4-6.4h57.6c6.4 0 6.4 6.4 6.4 6.4v96h64c6.4 0 6.4 6.4 6.4 6.4V588.8c0 6.4 0 12.8-6.4 12.8z m-57.6-364.8H768V531.2h76.8v-294.4z m-230.4 256h-64V665.6c0 6.4-6.4 6.4-6.4 6.4h-57.6c-6.4 0-6.4-6.4-6.4-6.4v-172.8h-64c-6.4 0-6.4-6.4-6.4-6.4v-198.4c0-6.4 6.4-6.4 6.4-6.4h64v-172.8c0-6.4 6.4-6.4 6.4-6.4h51.2c6.4 0 6.4 6.4 6.4 6.4V275.20000000000005h64c6.4 0 6.4 6.4 6.4 6.4V492.8c6.4-6.4 0 0 0 0z m-64-147.2H473.6V422.4h76.8v-76.8z"  horiz-adv-x="1024" />

    
    <glyph glyph-name="bianji" unicode="&#59037;" d="M512 384m-512 0a512 512 0 1 1 1024 0 512 512 0 1 1-1024 0ZM721.066667 200.533333H302.933333c-8.533333 0-17.066667-8.533333-17.066666-17.066666v-21.333334c0-4.266667 0-4.266667 4.266666-4.266666h439.466667c4.266667 0 4.266667 0 4.266667 4.266666v21.333334c4.266667 8.533333-4.266667 17.066667-12.8 17.066666z m-354.133334 46.933334c4.266667 0 4.266667 0 0 0l98.133334 17.066666h4.266666l238.933334 238.933334c4.266667 4.266667 4.266667 4.266667 0 8.533333l-93.866667 93.866667h-4.266667-4.266666l-238.933334-238.933334v-4.266666l-17.066666-93.866667c0-4.266667 0-12.8 4.266666-17.066667 4.266667 0 8.533333-4.266667 12.8-4.266666z"  horiz-adv-x="1024" />

    
    <glyph glyph-name="shanchu" unicode="&#59038;" d="M512 384m-512 0a512 512 0 1 1 1024 0 512 512 0 1 1-1024 0ZM686.933333 563.2c8.533333 0 21.333333 0 25.6-4.266667 8.533333-4.266667 12.8-8.533333 17.066667-12.8 4.266667-4.266667 8.533333-12.8 8.533333-17.066666 0-4.266667 4.266667-12.8 4.266667-17.066667V499.2h-34.133333v-277.333333c0-8.533333 0-12.8-4.266667-21.333334s-8.533333-12.8-12.8-17.066666c-4.266667-4.266667-12.8-8.533333-21.333333-12.8s-17.066667-4.266667-25.6-4.266667H409.6c-8.533333 0-17.066667 0-25.6 4.266667-8.533333 4.266667-17.066667 8.533333-21.333333 12.8-4.266667 4.266667-8.533333 12.8-12.8 17.066666s-8.533333 17.066667-8.533334 25.6V499.2h-29.866666v4.266667 17.066666c0 4.266667 0 8.533333 4.266666 17.066667s4.266667 12.8 8.533334 17.066667 8.533333 0 12.8 4.266666 12.8 4.266667 25.6 4.266667h46.933333V597.333333c0 8.533333 4.266667 17.066667 8.533333 21.333334 4.266667 8.533333 12.8 8.533333 21.333334 8.533333h166.4c12.8 0 21.333333-4.266667 25.6-8.533333 4.266667-4.266667 8.533333-12.8 8.533333-21.333334v-34.133333h46.933333z m-247.466666 0h166.4V597.333333h-166.4v-34.133333z m-12.8-332.8c12.8 0 17.066667 8.533333 17.066666 21.333333V494.933333h-34.133333v-243.2c0-8.533333 0-12.8 4.266667-17.066666 0-4.266667 4.266667-4.266667 12.8-4.266667z m98.133333 0c4.266667 0 8.533333 0 12.8 4.266667s4.266667 8.533333 4.266667 17.066666V494.933333h-34.133334v-243.2c0-12.8 4.266667-21.333333 17.066667-21.333333z m98.133333 0c4.266667 0 8.533333 0 12.8 4.266667 0 4.266667 4.266667 8.533333 4.266667 17.066666V494.933333h-34.133333v-243.2c0-12.8 4.266667-21.333333 17.066666-21.333333z"  horiz-adv-x="1024" />

    
    <glyph glyph-name="logo" unicode="&#59036;" d="M508.8 896L70.4 643.2v-505.6l438.4-252.8 438.4 252.8V643.2L508.8 896z m96-160l-99.2-54.4-96 51.2 99.2 57.6 96-54.4zM163.2 307.2l67.2-38.4v-118.4l-67.2 38.4v118.4z m160-211.2V476.8l86.4 44.8-96 51.2-80-44.8v-156.8L163.2 416V588.8l153.6 89.6 371.2-201.6v-44.8l92.8 57.6v41.6l-176 96 96 54.4 156.8-92.8v-160l-348.8-214.4-92.8 54.4v-105.6l92.8-54.4 176 108.8v-128l-176-102.4L323.2 96z m454.4 48v131.2l76.8 48V192l-76.8-48zM595.2 355.2v99.2l-86.4 48-86.4-48v-99.2l86.4-48z"  horiz-adv-x="1024" />

    
    <glyph glyph-name="xiazai" unicode="&#59033;" d="M42.666667 896h1024v-1024H42.666667zM548.266667 236.8c0-6.4 6.4-6.4 12.8 0l115.2 140.8c6.4 6.4 0 12.8-6.4 12.8H593.066667V729.6c0 6.4-6.4 6.4-6.4 6.4h-64c-6.4 0-6.4-6.4-6.4-6.4v-339.2H439.466667c-6.4 0-6.4-6.4 0-12.8l108.8-140.8z m371.2 32h-57.6c-6.4 0-6.4-6.4-6.4-6.4v-153.6H253.866667V262.4c0 6.4-6.4 6.4-6.4 6.4H189.866667c-6.4 0-6.4-6.4-6.4-6.4V64c0-19.2 12.8-32 32-32h684.8c19.2 0 32 12.8 32 32V262.4c-6.4 6.4-6.4 6.4-12.8 6.4z"  horiz-adv-x="1365" />

    
    <glyph glyph-name="fenpei" unicode="&#59034;" d="M42.666667 896h1024v-1024H42.666667zM932.266667 217.6H874.666667V358.4H586.666667V448h236.8c6.4 0 12.8 6.4 12.8 12.8V729.6c0 6.4-6.4 12.8-12.8 12.8H285.866667c-6.4 0-12.8-6.4-12.8-12.8v-262.4c-6.4-12.8 0-19.2 12.8-19.2h236.8v-89.6H234.666667v-140.8H177.066667s-6.4-6.4-6.4-12.8v-179.2c0-6.4 6.4-6.4 6.4-6.4h179.2c6.4 0 6.4 6.4 6.4 6.4V204.8c0 6.4-6.4 6.4-6.4 6.4H298.666667V288h217.6v-70.4h-51.2c-6.4 0-6.4-6.4-6.4-6.4v-179.2c0-6.4 6.4-6.4 6.4-6.4h179.2c6.4 0 6.4 6.4 6.4 6.4V204.8c0 6.4-6.4 6.4-6.4 6.4h-57.6V288H810.666667v-70.4h-57.6s-6.4-6.4-6.4-12.8v-179.2c0-6.4 6.4-6.4 6.4-6.4h179.2c6.4 0 6.4 6.4 6.4 6.4V204.8c0 6.4-6.4 12.8-6.4 12.8z m-633.6-128H234.666667v57.6h64v-57.6z m288 0h-64v57.6h57.6v-57.6zM330.666667 512V678.4h448V512h-448z m544-422.4h-64v57.6h64v-57.6zM401.066667 595.2c0-19.2 19.2-38.4 38.4-38.4s44.8 19.2 44.8 38.4-19.2 38.4-44.8 38.4-38.4-12.8-38.4-38.4z"  horiz-adv-x="1365" />

    
    <glyph glyph-name="daifenpei" unicode="&#59035;" d="M198.2464-77.2096l-3.2768 0.8192c-0.8192 0-65.536 25.3952-95.8464 81.92-30.3104 56.5248-15.5648 124.5184-15.5648 125.3376l0.8192 3.2768 3.2768-0.8192c0.8192 0 65.536-25.3952 95.8464-81.92 30.3104-56.5248 15.5648-124.5184 15.5648-125.3376l-0.8192-3.2768z m-94.208 85.1968c25.3952-47.5136 77.0048-72.0896 90.112-77.824 2.4576 13.9264 10.6496 70.4512-15.5648 117.9648-25.3952 47.5136-77.0048 72.0896-90.112 77.824-2.4576-13.9264-9.8304-70.4512 15.5648-117.9648zM122.88 25.1904c54.8864-32.768 76.1856-98.304 76.1856-98.304s-67.9936-12.288-122.88 21.2992c-54.8864 32.768-76.1856 98.304-76.1856 98.304s67.9936 11.4688 122.88-21.2992zM1875.968 883.712h-611.1232V896h-276.8896v-12.288H374.3744c-10.6496 0-21.2992-4.096-29.4912-12.288s-12.288-18.0224-12.288-29.4912v-836.4032c0-22.9376 18.8416-40.96 40.96-40.96H1875.968c10.6496 0 21.2992 4.096 29.4912 12.288s12.288 18.0224 12.288 29.4912V841.9328c0 10.6496-4.096 21.2992-12.288 29.4912s-18.8416 12.288-29.4912 12.288zM388.3008 809.984h1472.9216v-830.6688H388.3008zM1123.9424 848.4864m-14.7456 0a14.7456 14.7456 0 1 1 29.4912 0 14.7456 14.7456 0 1 1-29.4912 0ZM1776.8448 704.3072h-69.632v69.632h69.632v-69.632z m-66.3552 3.2768h63.8976v63.8976h-63.8976V707.584zM1958.7072-5.12h-143.36v10.6496c0 0.8192 0 0.8192-0.8192 1.6384 0 0-0.8192 0.8192-1.6384 0.8192h-49.152c-0.8192 0-0.8192 0-1.6384-0.8192s-0.8192-0.8192-0.8192-1.6384v-10.6496h-31.1296v10.6496c0 0.8192 0 0.8192-0.8192 1.6384s-0.8192 0.8192-1.6384 0.8192h-49.152c-0.8192 0-0.8192 0-1.6384-0.8192 0 0-0.8192-0.8192-0.8192-1.6384v-10.6496H1646.592v10.6496c0 0.8192 0 0.8192-0.8192 1.6384 0 0-0.8192 0.8192-1.6384 0.8192h-49.152c-0.8192 0-0.8192 0-1.6384-0.8192 0 0-0.8192-0.8192-0.8192-1.6384v-10.6496h-31.1296v10.6496c0 0.8192 0 0.8192-0.8192 1.6384 0 0-0.8192 0.8192-1.6384 0.8192h-49.152c-0.8192 0-0.8192 0-1.6384-0.8192s-0.8192-0.8192-0.8192-1.6384v-10.6496h-31.1296v10.6496c0 0.8192 0 0.8192-0.8192 1.6384 0 0-0.8192 0.8192-1.6384 0.8192h-49.152c-0.8192 0-0.8192 0-1.6384-0.8192 0 0-0.8192-0.8192-0.8192-1.6384v-10.6496h-31.1296v10.6496c0 0.8192 0 0.8192-0.8192 1.6384 0 0-0.8192 0.8192-1.6384 0.8192h-49.152c-0.8192 0-0.8192 0-1.6384-0.8192 0 0-0.8192-0.8192-0.8192-1.6384v-10.6496h-31.1296v10.6496c0 0.8192 0 0.8192-0.8192 1.6384 0 0-0.8192 0.8192-1.6384 0.8192H917.504c-0.8192 0-0.8192 0-1.6384-0.8192s-0.8192-0.8192-0.8192-1.6384v-10.6496h-31.1296v10.6496c0 0.8192 0 0.8192-0.8192 1.6384s-0.8192 0.8192-1.6384 0.8192h-49.152c-0.8192 0-0.8192 0-1.6384-0.8192 0 0-0.8192-0.8192-0.8192-1.6384v-10.6496h-31.1296v10.6496c0 0.8192 0 0.8192-0.8192 1.6384 0 0-0.8192 0.8192-1.6384 0.8192h-49.152c-0.8192 0-0.8192 0-1.6384-0.8192 0 0-0.8192-0.8192-0.8192-1.6384v-10.6496h-31.1296v10.6496c0 0.8192 0 0.8192-0.8192 1.6384s-0.8192 0.8192-1.6384 0.8192h-49.152c-0.8192 0-0.8192 0-1.6384-0.8192 0 0-0.8192-0.8192-0.8192-1.6384v-10.6496h-31.1296v10.6496c0 0.8192 0 0.8192-0.8192 1.6384 0 0-0.8192 0.8192-1.6384 0.8192h-49.152c-0.8192 0-0.8192 0-1.6384-0.8192 0 0-0.8192-0.8192-0.8192-1.6384v-10.6496h-31.1296v10.6496c0 0.8192 0 0.8192-0.8192 1.6384 0 0-0.8192 0.8192-1.6384 0.8192h-49.152c-0.8192 0-0.8192 0-1.6384-0.8192s-0.8192-0.8192-0.8192-1.6384v-10.6496H466.944v10.6496c0 0.8192 0 0.8192-0.8192 1.6384 0 0-0.8192 0.8192-1.6384 0.8192h-49.152c-0.8192 0-0.8192 0-1.6384-0.8192 0 0-0.8192-0.8192-0.8192-1.6384v-10.6496H319.488c-27.0336 0-49.152-22.1184-49.152-49.152v-22.1184c0-27.0336 22.1184-49.152 49.152-49.152h1639.2192c27.0336 0 49.152 22.1184 49.152 49.152V-54.272c0 27.0336-22.1184 49.152-49.152 49.152zM67.1744-75.5712h2143.0272v-8.192H67.1744zM1770.2912 347.136h-474.3168V617.472h474.3168v-270.336z m-469.4016 4.9152h465.3056V612.5568h-465.3056v-260.5056zM901.9392 293.0688H479.232V556.032h422.7072v-262.9632z m-417.792 4.9152h412.8768V551.936H484.1472v-253.952zM676.6592 394.6496v4.9152c-0.8192 10.6496 2.4576 22.9376 12.288 35.2256 9.0112 10.6496 13.9264 18.8416 13.9264 27.8528 0 10.6496-6.5536 17.2032-18.8416 17.2032-7.3728 0-14.7456-2.4576-20.48-6.5536l-4.9152 13.1072c6.5536 4.9152 18.0224 8.192 28.672 8.192 22.9376 0 33.5872-14.7456 33.5872-29.4912 0-13.9264-7.3728-23.7568-17.2032-35.2256-9.0112-10.6496-12.288-19.6608-11.4688-29.4912v-4.9152h-15.5648z m-4.096-28.672c0 3.2768 0.8192 6.5536 3.2768 9.0112 2.4576 2.4576 5.7344 4.096 9.0112 4.096 7.3728 0 12.288-4.9152 12.288-13.1072 0-4.096-2.4576-8.192-5.7344-10.6496-4.096-2.4576-8.192-2.4576-12.288 0-4.9152 2.4576-7.3728 6.5536-6.5536 10.6496zM1519.616 452.8128v4.9152c-0.8192 10.6496 2.4576 22.9376 12.288 35.2256 9.0112 10.6496 13.9264 18.8416 13.9264 27.8528 0 10.6496-6.5536 17.2032-18.8416 17.2032-7.3728 0-14.7456-2.4576-20.48-6.5536l-4.9152 13.1072c6.5536 4.9152 18.0224 8.192 28.672 8.192 22.9376 0 33.5872-14.7456 33.5872-29.4912 0-13.9264-7.3728-23.7568-17.2032-35.2256-9.0112-10.6496-12.288-19.6608-11.4688-29.4912v-4.9152h-15.5648z m-4.096-27.8528c0 3.2768 0.8192 6.5536 3.2768 9.0112 2.4576 2.4576 5.7344 4.096 9.0112 4.096 7.3728 0 12.288-4.9152 12.288-13.1072 0-4.096-2.4576-8.192-5.7344-10.6496-4.096-2.4576-8.192-2.4576-12.288 0-4.9152 1.6384-7.3728 5.7344-6.5536 10.6496zM1133.7728 283.2384m-202.3424 0a202.3424 202.3424 0 1 1 404.6848 0 202.3424 202.3424 0 1 1-404.6848 0ZM1055.1296 6.3488l-60.6208 10.6496 19.6608 126.1568 60.6208-10.6496zM1115.938816 13.369344l19.70176 108.822528 60.45696-10.944512-19.70176-108.822528zM1162.716472-12.117983a18.8416 51.6096 78.586 1 1 7.457387 36.937934 18.8416 51.6096 78.586 1 1-7.457387-36.937934ZM1037.043335-12.70148a18.8416 51.6096 82.455 1 1 4.947986 37.35694 18.8416 51.6096 82.455 1 1-4.947986-37.35694ZM1147.6992 333.2096m-69.632 0a69.632 69.632 0 1 1 139.264 0 69.632 69.632 0 1 1-139.264 0ZM1176.3712 357.7856m-22.9376 0a22.9376 22.9376 0 1 1 45.8752 0 22.9376 22.9376 0 1 1-45.8752 0ZM973.2096 503.6032c-3.2768 75.3664 61.44 138.4448 144.1792 141.7216 82.7392 3.2768 152.3712-54.8864 155.648-129.4336 3.2768-75.3664-54.8864-91.7504-137.6256-95.0272-81.92-3.2768-158.9248 8.192-162.2016 82.7392zM1221.602238 297.405187a101.5808 31.9488 12.909 1 1 198.026917 45.386957 101.5808 31.9488 12.909 1 1-198.026917-45.386957ZM823.342889 231.773134a101.5808 31.9488 12.909 1 1 198.026917 45.386957 101.5808 31.9488 12.909 1 1-198.026917-45.386957ZM1078.0672 203.776c-3.2768-16.384 3.2768-32.768 15.5648-43.4176s30.3104-13.9264 45.056-8.192c15.5648 5.7344 27.0336 18.8416 29.4912 35.2256 4.9152 25.3952-14.7456 33.5872-40.1408 38.5024-24.576 4.096-45.8752 2.4576-49.9712-22.1184zM362.9056 864.8704H696.32v-317.0304H362.9056zM400.5888 827.1872h257.2288v-196.608H400.5888zM400.5888 607.6416H540.672v-8.192H400.5888zM400.5888 585.5232H540.672v-8.192H400.5888zM446.464 728.8832m-29.4912 0a29.4912 29.4912 0 1 1 58.9824 0 29.4912 29.4912 0 1 1-58.9824 0ZM529.2032 728.8832m-29.4912 0a29.4912 29.4912 0 1 1 58.9824 0 29.4912 29.4912 0 1 1-58.9824 0ZM611.9424 728.8832m-29.4912 0a29.4912 29.4912 0 1 1 58.9824 0 29.4912 29.4912 0 1 1-58.9824 0ZM529.2032 846.848m-14.7456 0a14.7456 14.7456 0 1 1 29.4912 0 14.7456 14.7456 0 1 1-29.4912 0ZM521.0112 251.2896h333.4144v-317.0304H521.0112zM559.5136 213.6064h257.2288v-196.608H559.5136zM616.0384 181.6576h90.112v-90.112h-90.112zM650.4448 158.72v-109.7728h109.7728V158.72H650.4448z m104.8576-104.8576H655.36V153.8048h99.9424v-99.9424zM558.6944-2.6624h140.0832v-8.192H558.6944zM688.128 233.2672m-14.7456 0a14.7456 14.7456 0 1 1 29.4912 0 14.7456 14.7456 0 1 1-29.4912 0ZM1388.544 346.3168h333.4144v-317.0304h-333.4144zM1426.2272 308.6336h257.2288v-196.608h-257.2288zM1527.808 154.624h55.7056v-16.384h-55.7056zM1460.6336 282.4192h189.2352v-8.192h-189.2352zM1460.6336 260.3008h189.2352v-8.192h-189.2352zM1460.6336 237.3632h189.2352v-8.192h-189.2352zM1460.6336 215.2448h189.2352v-8.192h-189.2352zM1460.6336 193.1264h189.2352v-8.192h-189.2352zM1426.2272 92.3648h140.0832v-8.192h-140.0832zM1426.2272 73.5232h194.9696v-8.192h-194.9696zM1555.6608 328.2944m-14.7456 0a14.7456 14.7456 0 1 1 29.4912 0 14.7456 14.7456 0 1 1-29.4912 0Z"  horiz-adv-x="2211" />

    
    <glyph glyph-name="l-pinggupingjiabeifen" unicode="&#59031;" d="M534.4 470.4V656c118.4 0 214.4-96 214.4-214.4h-182.4c-16-3.2-32 12.8-32 28.8zM489.6 179.2a214.4 214.4 0 0 0 0 428.8v-182.4c0-19.2 12.8-32 32-32H704c3.2-118.4-96-214.4-214.4-214.4z"  horiz-adv-x="1024" />

    
    <glyph glyph-name="l-yuanguanlibeifen" unicode="&#59032;" d="M256 640h512v-512H256zM352 134.4c9.6 0 19.2 3.2 25.6 12.8s9.6 19.2 9.6 32V588.8c0 12.8-3.2 22.4-9.6 32s-16 12.8-25.6 12.8H300.8c-9.6 0-19.2-3.2-25.6-12.8-6.4-9.6-9.6-19.2-9.6-32v-406.4c0-12.8 3.2-22.4 9.6-32s16-12.8 25.6-12.8H352v-3.2z m-48 124.8c-3.2 0-6.4 0-6.4 3.2-3.2 3.2-3.2 6.4-3.2 9.6 0 3.2 0 6.4 3.2 9.6 3.2 3.2 3.2 3.2 6.4 3.2h41.6c3.2 0 6.4 0 6.4-3.2 3.2-3.2 3.2-6.4 3.2-9.6 0-3.2 0-6.4-3.2-9.6-3.2-3.2-3.2-3.2-6.4-3.2H304z m41.6 217.6c3.2 0 6.4 0 6.4-3.2 3.2-3.2 3.2-6.4 3.2-9.6s0-9.6-3.2-12.8c0-3.2-3.2-3.2-6.4-3.2H304c-3.2 0-6.4 0-6.4 3.2-3.2 3.2-3.2 6.4-3.2 12.8 0 3.2 0 6.4 3.2 9.6s3.2 3.2 6.4 3.2h41.6z m0-92.8c3.2 0 6.4 0 6.4-3.2 3.2-3.2 3.2-6.4 3.2-9.6 0-3.2 0-9.6-3.2-9.6 0-6.4-3.2-9.6-6.4-9.6H304c-3.2 0-6.4 0-6.4 3.2-3.2 3.2-3.2 6.4-3.2 9.6 0 3.2 0 9.6 3.2 9.6 3.2 9.6 3.2 9.6 6.4 9.6h41.6zM508.8 630.4c9.6 0 19.2-3.2 25.6-12.8 6.4-9.6 9.6-19.2 9.6-32v-406.4c0-12.8-3.2-22.4-9.6-32-6.4-9.6-16-12.8-25.6-12.8h-57.6c-9.6 0-19.2 3.2-22.4 12.8-6.4 9.6-6.4 19.2-6.4 32V588.8c0 12.8 3.2 22.4 9.6 32s16 12.8 25.6 12.8l51.2-3.2z m-6.4-246.4h-41.6c-3.2 0-6.4 0-6.4-3.2-3.2-3.2-3.2-6.4-3.2-12.8 0-3.2 0-6.4 3.2-9.6 3.2-3.2 3.2-3.2 6.4-3.2h41.6c3.2 0 6.4 0 6.4 3.2 3.2 3.2 3.2 6.4 3.2 9.6 0 3.2 0 9.6-3.2 12.8 0 3.2-3.2 3.2-6.4 3.2z m0 92.8h-41.6c-3.2 0-6.4 0-6.4-3.2-3.2-3.2-3.2-6.4-3.2-9.6s0-6.4 3.2-9.6 3.2-3.2 6.4-3.2h41.6c3.2 0 6.4 0 6.4 3.2 3.2 3.2 3.2 6.4 3.2 9.6s0 6.4-3.2 9.6c0 3.2-3.2 3.2-6.4 3.2zM758.4 569.6c3.2 12.8 0 22.4-6.4 32s-12.8 16-22.4 19.2l-60.8 12.8c-9.6 3.2-19.2 0-25.6-6.4-9.6-6.4-12.8-16-16-28.8L576 201.6v-16c0-6.4 3.2-9.6 6.4-16 6.4-9.6 12.8-16 22.4-19.2l60.8-12.8c9.6-3.2 19.2 0 25.6 6.4 6.4 6.4 12.8 16 16 28.8l51.2 396.8z"  horiz-adv-x="1024" />

    
    <glyph glyph-name="l-daichuli" unicode="&#59017;" d="M316.8 640h153.6c16 0 28.8-12.8 28.8-28.8v-214.4c0-16-12.8-28.8-28.8-28.8H316.8c-16 0-28.8 12.8-28.8 28.8V611.2c0 16 12.8 28.8 28.8 28.8zM316.8 320h153.6c16 0 28.8-12.8 28.8-28.8v-121.6c0-16-12.8-28.8-28.8-28.8H316.8c-16 0-28.8 12.8-28.8 28.8v121.6c0 16 12.8 28.8 28.8 28.8zM729.6 137.6H576c-16 0-28.8 12.8-28.8 32v211.2c0 16 12.8 28.8 28.8 28.8h153.6c16 0 28.8-12.8 28.8-28.8v-211.2c0-16-12.8-32-28.8-32zM729.6 457.6H576c-16 0-28.8 12.8-28.8 28.8V611.2c0 16 12.8 28.8 28.8 28.8h153.6c16 0 28.8-12.8 28.8-28.8v-121.6c0-19.2-12.8-32-28.8-32z"  horiz-adv-x="1024" />

    
    <glyph glyph-name="l-shujutongjibeifen" unicode="&#59018;" d="M326.4 387.2h48c19.2 0 32-12.8 32-32v-172.8c0-19.2-12.8-32-32-32h-48c-19.2 0-32 12.8-32 32v172.8c0 19.2 12.8 32 32 32zM652.8 502.4h48c19.2 0 32-12.8 32-32v-288c0-19.2-12.8-32-32-32h-48c-19.2 0-32 12.8-32 32v288c0 19.2 12.8 32 32 32zM489.6 617.6h48c19.2 0 32-12.8 32-32v-403.2c0-19.2-12.8-32-32-32h-48c-19.2 0-32 12.8-32 32V585.6c0 19.2 12.8 32 32 32z"  horiz-adv-x="1024" />

    
    <glyph glyph-name="l-wode" unicode="&#59019;" d="M508.8 486.4m-153.6 0a153.6 153.6 0 1 1 307.2 0 153.6 153.6 0 1 1-307.2 0ZM508.8 300.8c121.6 0 220.8-67.2 220.8-153.6 0-9.6-6.4-16-16-16H304c-9.6 0-16 6.4-16 16 0 86.4 99.2 153.6 220.8 153.6z"  horiz-adv-x="1024" />

    
    <glyph glyph-name="l-yingjiguanlibeifen" unicode="&#59020;" d="M579.2 460.8h-60.8l60.8 57.6v3.2l-3.2 3.2h-73.6s-3.2 0-3.2-3.2l-64-96v-3.2h57.6L448 336v-3.2h3.2l128 121.6c3.2 3.2 3.2 3.2 0 6.4zM576 128h-96c-16 0-32 12.8-32 32 0 16 12.8 32 32 32h96c16 0 32-12.8 32-32 0-16-12.8-32-32-32z"  horiz-adv-x="1024" />

    
    <glyph glyph-name="l-xitongbeifen" unicode="&#59021;" d="M515.2 486.4l92.8-51.2v-102.4l-92.8-51.2-92.8 51.2v102.4l92.8 51.2zM512 640l-220.8-124.8v-256l220.8-128 220.8 124.8v256L512 640z m147.2-336l-144-83.2-144 83.2v163.2l144 83.2 144-83.2v-163.2z"  horiz-adv-x="1024" />

    
    <glyph glyph-name="o-pinggupingjia" unicode="&#59022;" d="M512 384m-512 0a512 512 0 1 1 1024 0 512 512 0 1 1-1024 0ZM534.4 470.4V656c118.4 0 214.4-96 214.4-214.4h-182.4c-16-3.2-32 12.8-32 28.8zM489.6 179.2a214.4 214.4 0 0 0 0 428.8v-182.4c0-19.2 12.8-32 32-32H704c3.2-118.4-96-214.4-214.4-214.4z"  horiz-adv-x="1024" />

    
    <glyph glyph-name="o-daichuli" unicode="&#59023;" d="M512 384m-512 0a512 512 0 1 1 1024 0 512 512 0 1 1-1024 0ZM316.8 640h153.6c16 0 28.8-12.8 28.8-28.8v-214.4c0-16-12.8-28.8-28.8-28.8H316.8c-16 0-28.8 12.8-28.8 28.8V611.2c0 16 12.8 28.8 28.8 28.8zM316.8 320h153.6c16 0 28.8-12.8 28.8-28.8v-121.6c0-16-12.8-28.8-28.8-28.8H316.8c-16 0-28.8 12.8-28.8 28.8v121.6c0 16 12.8 28.8 28.8 28.8zM729.6 137.6H576c-16 0-28.8 12.8-28.8 32v211.2c0 16 12.8 28.8 28.8 28.8h153.6c16 0 28.8-12.8 28.8-28.8v-211.2c0-16-12.8-32-28.8-32zM729.6 457.6H576c-16 0-28.8 12.8-28.8 28.8V611.2c0 16 12.8 28.8 28.8 28.8h153.6c16 0 28.8-12.8 28.8-28.8v-121.6c0-19.2-12.8-32-28.8-32z"  horiz-adv-x="1024" />

    
    <glyph glyph-name="o-wode" unicode="&#59024;" d="M512 384m-512 0a512 512 0 1 1 1024 0 512 512 0 1 1-1024 0ZM508.8 486.4m-153.6 0a153.6 153.6 0 1 1 307.2 0 153.6 153.6 0 1 1-307.2 0ZM508.8 300.8c121.6 0 220.8-67.2 220.8-153.6 0-9.6-6.4-16-16-16H304c-9.6 0-16 6.4-16 16 0 86.4 99.2 153.6 220.8 153.6z"  horiz-adv-x="1024" />

    
    <glyph glyph-name="o-xitong" unicode="&#59025;" d="M512 384m-512 0a512 512 0 1 1 1024 0 512 512 0 1 1-1024 0ZM512 588.8l-176-102.4v-201.6l176-102.4 176 102.4v201.6L512 588.8zM512 131.2l-220.8 128v256L512 640l220.8-128v-256L512 131.2z m-128 179.2l131.2-76.8 131.2 76.8v150.4L512 537.6l-128-76.8v-150.4zM515.2 518.4l118.4-67.2v-134.4l-118.4-67.2-118.4 67.2v134.4l118.4 67.2zM515.2 220.8l-144 83.2v163.2l144 83.2 144-83.2v-163.2l-144-83.2z m-92.8 108.8l92.8-51.2 92.8 51.2v105.6l-92.8 51.2-92.8-51.2v-105.6z"  horiz-adv-x="1024" />

    
    <glyph glyph-name="o-shujutongji" unicode="&#59026;" d="M512 384m-512 0a512 512 0 1 1 1024 0 512 512 0 1 1-1024 0ZM326.4 387.2h48c19.2 0 32-12.8 32-32v-172.8c0-19.2-12.8-32-32-32h-48c-19.2 0-32 12.8-32 32v172.8c0 19.2 12.8 32 32 32zM652.8 502.4h48c19.2 0 32-12.8 32-32v-288c0-19.2-12.8-32-32-32h-48c-19.2 0-32 12.8-32 32v288c0 19.2 12.8 32 32 32zM489.6 617.6h48c19.2 0 32-12.8 32-32v-403.2c0-19.2-12.8-32-32-32h-48c-19.2 0-32 12.8-32 32V585.6c0 19.2 12.8 32 32 32z"  horiz-adv-x="1024" />

    
    <glyph glyph-name="l-zonghechaxun" unicode="&#59027;" d="M512 524.8l128-73.6v128c0 12.8-6.4 22.4-16 28.8l-96 54.4c-9.6 6.4-22.4 6.4-32 0l-96-54.4c-9.6-6.4-16-19.2-16-28.8v-128l128 73.6zM748.8 387.2l-112 64v-147.2l-128-73.6-128 73.6v147.2l-108.8-64c-9.6-6.4-16-16-16-28.8v-108.8c0-12.8 6.4-22.4 16-28.8l96-54.4c9.6-6.4 22.4-6.4 32 0l112 64 112-64c9.6-6.4 22.4-6.4 32 0l96 54.4c9.6 6.4 16 16 16 28.8v108.8c-3.2 12.8-9.6 22.4-19.2 28.8zM592 329.6v96L512 473.6l-83.2-48v-96l83.2-44.8z"  horiz-adv-x="1024" />

    
    <glyph glyph-name="o-yingjiguanli" unicode="&#59028;" d="M512 384m-512 0a512 512 0 1 1 1024 0 512 512 0 1 1-1024 0ZM704 224H320c-35.2 0-64 28.8-64 64v288c0 35.2 28.8 64 64 64h384c35.2 0 64-32 64-64v-288c0-35.2-28.8-64-64-64z m-368 80h355.2v259.2H336v-259.2zM579.2 460.8h-60.8l60.8 57.6v3.2l-3.2 3.2h-73.6s-3.2 0-3.2-3.2l-64-96v-3.2h57.6L448 336v-3.2h3.2l128 121.6c3.2 3.2 3.2 3.2 0 6.4zM576 131.2h-96c-16 0-28.8 12.8-28.8 28.8s12.8 28.8 28.8 28.8h96c16 0 28.8-12.8 28.8-28.8 3.2-16-12.8-28.8-28.8-28.8z"  horiz-adv-x="1024" />

    
    <glyph glyph-name="o-yuanguanli" unicode="&#59029;" d="M512 384m-512 0a512 512 0 1 1 1024 0 512 512 0 1 1-1024 0ZM352 134.4c9.6 0 19.2 3.2 25.6 12.8 6.4 9.6 9.6 19.2 9.6 32V588.8c0 12.8-3.2 22.4-9.6 32-6.4 9.6-16 12.8-25.6 12.8H300.8c-9.6 0-19.2-3.2-25.6-12.8-6.4-9.6-9.6-19.2-9.6-32v-406.4c0-12.8 3.2-22.4 9.6-32 6.4-9.6 16-12.8 25.6-12.8H352z m-48 124.8c-3.2 0-6.4 0-6.4 3.2-3.2 3.2-3.2 6.4-3.2 9.6 0 3.2 0 6.4 3.2 9.6 3.2 3.2 3.2 3.2 6.4 3.2h41.6c3.2 0 6.4 0 6.4-3.2 3.2-3.2 3.2-6.4 3.2-9.6 0-3.2 0-6.4-3.2-9.6-3.2-3.2-3.2-3.2-6.4-3.2H304z m41.6 217.6c3.2 0 6.4 0 6.4-3.2 3.2-3.2 3.2-6.4 3.2-9.6 0-3.2 0-9.6-3.2-12.8 0-3.2-3.2-3.2-6.4-3.2H304c-3.2 0-6.4 0-6.4 3.2-3.2 3.2-3.2 6.4-3.2 12.8 0 3.2 0 6.4 3.2 9.6 3.2 3.2 3.2 3.2 6.4 3.2h41.6z m0-92.8c3.2 0 6.4 0 6.4-3.2 3.2-3.2 3.2-6.4 3.2-9.6 0-3.2 0-9.6-3.2-9.6 0-6.4-3.2-9.6-6.4-9.6H304c-3.2 0-6.4 0-6.4 3.2-3.2 3.2-3.2 6.4-3.2 9.6 0 3.2 0 9.6 3.2 9.6 3.2 9.6 3.2 9.6 6.4 9.6h41.6zM508.8 630.4c9.6 0 19.2-3.2 25.6-12.8 6.4-9.6 9.6-19.2 9.6-32v-406.4c0-12.8-3.2-22.4-9.6-32-6.4-9.6-16-12.8-25.6-12.8h-57.6c-9.6 0-19.2 3.2-22.4 12.8-6.4 9.6-6.4 19.2-6.4 32V588.8c0 12.8 3.2 22.4 9.6 32 6.4 9.6 16 12.8 25.6 12.8h51.2z m-6.4-246.4h-41.6c-3.2 0-6.4 0-6.4-3.2-3.2-3.2-3.2-6.4-3.2-12.8 0-3.2 0-6.4 3.2-9.6 3.2-3.2 3.2-3.2 6.4-3.2h41.6c3.2 0 6.4 0 6.4 3.2 3.2 3.2 3.2 6.4 3.2 9.6 0 3.2 0 9.6-3.2 12.8 0 3.2-3.2 3.2-6.4 3.2z m0 92.8h-41.6c-3.2 0-6.4 0-6.4-3.2-3.2-3.2-3.2-6.4-3.2-9.6 0-3.2 0-6.4 3.2-9.6 3.2-3.2 3.2-3.2 6.4-3.2h41.6c3.2 0 6.4 0 6.4 3.2 3.2 3.2 3.2 6.4 3.2 9.6 0 3.2 0 6.4-3.2 9.6 0 3.2-3.2 3.2-6.4 3.2zM758.4 569.6c3.2 12.8 0 22.4-6.4 32-6.4 9.6-12.8 16-22.4 19.2l-60.8 12.8c-9.6 3.2-19.2 0-25.6-6.4-9.6-6.4-12.8-16-16-28.8L576 201.6v-16c0-6.4 3.2-9.6 6.4-16 6.4-9.6 12.8-16 22.4-19.2l60.8-12.8c9.6-3.2 19.2 0 25.6 6.4 6.4 6.4 12.8 16 16 28.8l51.2 396.8z"  horiz-adv-x="1024" />

    
    <glyph glyph-name="o-zonghechaxun" unicode="&#59030;" d="M512 384m-512 0a512 512 0 1 1 1024 0 512 512 0 1 1-1024 0ZM512 492.8l128-73.6v128c0 12.8-6.4 22.4-16 28.8l-96 54.4c-9.6 6.4-22.4 6.4-32 0l-96-54.4c-9.6-6.4-16-16-16-28.8v-128l128 73.6zM748.8 355.2l-112 64v-147.2l-128-73.6-128 73.6v147.2l-108.8-64c-9.6-6.4-16-16-16-28.8v-108.8c0-12.8 6.4-22.4 16-28.8l96-54.4c9.6-6.4 22.4-6.4 32 0l112 64 112-64c9.6-6.4 22.4-6.4 32 0l96 54.4c9.6 6.4 16 16 16 28.8v108.8c-3.2 12.8-9.6 22.4-19.2 28.8zM592 297.6v96L512 441.6l-83.2-48v-96l83.2-44.8z"  horiz-adv-x="1024" />

    


  </font>
</defs>
</svg>
